<mxfile host="65bd71144e">
    <diagram id="8o53k0XVYs1EUbnP6ml4" name="Page-1">
        <mxGraphModel dx="3160" dy="1902" grid="1" gridSize="10" guides="1" tooltips="1" connect="1" arrows="1" fold="1" page="1" pageScale="1" pageWidth="850" pageHeight="1100" math="0" shadow="0">
            <root>
                <mxCell id="0"/>
                <mxCell id="1" parent="0"/>
                <mxCell id="358" value="" style="line;strokeWidth=13;direction=south;html=1;perimeter=backbonePerimeter;points=[];outlineConnect=0;" parent="1" vertex="1">
                    <mxGeometry x="807.5" y="500" width="10" height="600" as="geometry"/>
                </mxCell>
                <mxCell id="2" value="" style="rounded=1;whiteSpace=wrap;html=1;fillColor=#d5e8d4;opacity=40;strokeColor=#000000;glass=0;strokeWidth=6;" parent="1" vertex="1">
                    <mxGeometry x="-479.02" y="90" width="2600" height="594.42" as="geometry"/>
                </mxCell>
                <mxCell id="3" value="" style="rounded=1;whiteSpace=wrap;html=1;fillColor=#FFF2CC;opacity=40;strokeColor=#000000;glass=0;strokeWidth=6;" parent="1" vertex="1">
                    <mxGeometry x="-479.02" y="684.4200000000001" width="2600" height="170" as="geometry"/>
                </mxCell>
                <mxCell id="4" value="" style="rounded=1;whiteSpace=wrap;html=1;fillColor=#FFCCCC;opacity=40;strokeColor=#000000;glass=0;strokeWidth=6;" parent="1" vertex="1">
                    <mxGeometry x="-479.02" y="854.42" width="2600" height="170" as="geometry"/>
                </mxCell>
                <mxCell id="5" style="edgeStyle=orthogonalEdgeStyle;rounded=0;orthogonalLoop=1;jettySize=auto;html=1;entryX=0.063;entryY=-0.004;entryDx=0;entryDy=0;entryPerimeter=0;strokeWidth=6;strokeColor=#000000;" parent="1" source="6" target="8" edge="1">
                    <mxGeometry relative="1" as="geometry"/>
                </mxCell>
                <mxCell id="6" value="&lt;span style=&quot;font-size: 43px; font-weight: 700;&quot;&gt;C0&lt;/span&gt;" style="whiteSpace=wrap;html=1;aspect=fixed;fillColor=#d5e8d4;strokeColor=#000000;strokeWidth=6;labelBackgroundColor=none;" parent="1" vertex="1">
                    <mxGeometry x="389.76" y="210" width="140" height="140" as="geometry"/>
                </mxCell>
                <mxCell id="7" value="" style="group;strokeWidth=6;strokeColor=#000000;" parent="1" vertex="1" connectable="0">
                    <mxGeometry x="409.76" y="460" width="800" height="40" as="geometry"/>
                </mxCell>
                <mxCell id="8" value="" style="rounded=0;whiteSpace=wrap;html=1;fillColor=#CCFFFF;strokeWidth=6;strokeColor=#000000;" parent="7" vertex="1">
                    <mxGeometry width="800" height="40" as="geometry"/>
                </mxCell>
                <mxCell id="9" value="" style="group;strokeWidth=6;strokeColor=none;" parent="7" vertex="1" connectable="0">
                    <mxGeometry x="360.0049781659389" y="10" width="76.85589519650655" height="20" as="geometry"/>
                </mxCell>
                <mxCell id="10" value="" style="endArrow=none;html=1;rounded=0;strokeWidth=6;strokeColor=#000000;" parent="9" edge="1">
                    <mxGeometry width="50" height="50" relative="1" as="geometry">
                        <mxPoint as="sourcePoint"/>
                        <mxPoint x="29.888403687530325" as="targetPoint"/>
                    </mxGeometry>
                </mxCell>
                <mxCell id="11" value="" style="endArrow=none;html=1;rounded=0;strokeWidth=6;strokeColor=#000000;" parent="9" edge="1">
                    <mxGeometry width="50" height="50" relative="1" as="geometry">
                        <mxPoint x="29.888403687530325" as="sourcePoint"/>
                        <mxPoint x="46.96749150897623" y="20" as="targetPoint"/>
                    </mxGeometry>
                </mxCell>
                <mxCell id="12" value="" style="endArrow=none;html=1;rounded=0;strokeWidth=6;strokeColor=#000000;" parent="9" edge="1">
                    <mxGeometry width="50" height="50" relative="1" as="geometry">
                        <mxPoint x="29.888403687530325" y="20" as="sourcePoint"/>
                        <mxPoint x="46.96749150897623" as="targetPoint"/>
                    </mxGeometry>
                </mxCell>
                <mxCell id="13" value="" style="endArrow=none;html=1;rounded=0;strokeWidth=6;strokeColor=#000000;" parent="9" edge="1">
                    <mxGeometry width="50" height="50" relative="1" as="geometry">
                        <mxPoint x="46.96749150897623" as="sourcePoint"/>
                        <mxPoint x="76.85589519650655" as="targetPoint"/>
                    </mxGeometry>
                </mxCell>
                <mxCell id="14" value="" style="endArrow=none;html=1;rounded=0;strokeWidth=6;strokeColor=#000000;" parent="9" edge="1">
                    <mxGeometry width="50" height="50" relative="1" as="geometry">
                        <mxPoint x="46.96749150897623" y="20" as="sourcePoint"/>
                        <mxPoint x="76.85589519650655" y="20" as="targetPoint"/>
                    </mxGeometry>
                </mxCell>
                <mxCell id="15" value="" style="endArrow=none;html=1;rounded=0;strokeWidth=6;strokeColor=#000000;" parent="9" edge="1">
                    <mxGeometry width="50" height="50" relative="1" as="geometry">
                        <mxPoint y="20" as="sourcePoint"/>
                        <mxPoint x="29.888403687530325" y="20" as="targetPoint"/>
                    </mxGeometry>
                </mxCell>
                <mxCell id="16" style="edgeStyle=orthogonalEdgeStyle;rounded=0;orthogonalLoop=1;jettySize=auto;html=1;entryX=0.388;entryY=0.003;entryDx=0;entryDy=0;entryPerimeter=0;strokeWidth=6;strokeColor=#000000;" parent="1" source="17" edge="1">
                    <mxGeometry relative="1" as="geometry">
                        <mxPoint x="656.6800000000003" y="460.1200000000001" as="targetPoint"/>
                    </mxGeometry>
                </mxCell>
                <mxCell id="17" value="&lt;span style=&quot;font-size: 43px ; font-weight: 700&quot;&gt;C1&lt;/span&gt;" style="whiteSpace=wrap;html=1;aspect=fixed;fillColor=#d5e8d4;strokeColor=#000000;strokeWidth=6;" parent="1" vertex="1">
                    <mxGeometry x="586.76" y="210" width="140" height="140" as="geometry"/>
                </mxCell>
                <mxCell id="21" style="edgeStyle=orthogonalEdgeStyle;rounded=0;jumpStyle=none;jumpSize=6;orthogonalLoop=1;jettySize=auto;html=1;entryX=1;entryY=0.5;entryDx=0;entryDy=0;startArrow=none;startFill=0;endArrow=classic;endFill=1;startSize=1;endSize=1;strokeColor=#000000;strokeWidth=6;" parent="1" source="22" target="391" edge="1">
                    <mxGeometry relative="1" as="geometry">
                        <Array as="points">
                            <mxPoint x="188" y="929"/>
                        </Array>
                        <mxPoint x="57.09999999999991" y="929.4200000000003" as="targetPoint"/>
                    </mxGeometry>
                </mxCell>
                <mxCell id="22" value="X-2" style="whiteSpace=wrap;html=1;aspect=fixed;fillColor=#fff2cc;strokeColor=#000000;rotation=90;strokeWidth=6;fontSize=43;fontStyle=1;horizontal=0;" parent="1" vertex="1">
                    <mxGeometry x="137.49999999999997" y="700" width="100" height="100" as="geometry"/>
                </mxCell>
                <mxCell id="23" value="&lt;span style=&quot;font-size: 43px ; font-weight: 700&quot;&gt;X-3&lt;/span&gt;" style="whiteSpace=wrap;html=1;aspect=fixed;fillColor=#fff2cc;strokeColor=#000000;rotation=90;strokeWidth=6;horizontal=0;" parent="1" vertex="1">
                    <mxGeometry x="237.49999999999997" y="700" width="100" height="100" as="geometry"/>
                </mxCell>
                <mxCell id="24" value="&lt;span style=&quot;font-size: 43px ; font-weight: 700&quot;&gt;X-4&lt;/span&gt;" style="whiteSpace=wrap;html=1;aspect=fixed;fillColor=#fff2cc;strokeColor=#000000;rotation=90;strokeWidth=6;horizontal=0;" parent="1" vertex="1">
                    <mxGeometry x="337.5" y="700" width="100" height="100" as="geometry"/>
                </mxCell>
                <mxCell id="25" value="" style="endArrow=none;dashed=1;html=1;rounded=0;startSize=1;endSize=1;strokeColor=#000000;strokeWidth=6;jumpStyle=none;jumpSize=6;" parent="1" edge="1">
                    <mxGeometry width="50" height="50" relative="1" as="geometry">
                        <mxPoint x="450.98" y="750" as="sourcePoint"/>
                        <mxPoint x="540.98" y="750" as="targetPoint"/>
                    </mxGeometry>
                </mxCell>
                <mxCell id="26" value="&lt;span style=&quot;font-size: 43px ; font-weight: 700&quot;&gt;0&lt;/span&gt;" style="whiteSpace=wrap;html=1;aspect=fixed;fillColor=#fff2cc;strokeColor=#000000;rotation=90;strokeWidth=6;horizontal=0;" parent="1" vertex="1">
                    <mxGeometry x="550.98" y="700" width="100" height="100" as="geometry"/>
                </mxCell>
                <mxCell id="27" style="edgeStyle=orthogonalEdgeStyle;rounded=0;jumpStyle=none;jumpSize=6;orthogonalLoop=1;jettySize=auto;html=1;entryX=1;entryY=0.5;entryDx=0;entryDy=0;startArrow=none;startFill=0;endArrow=classic;endFill=1;startSize=1;endSize=1;strokeColor=#000000;strokeWidth=6;exitX=0;exitY=0.5;exitDx=0;exitDy=0;" parent="1" source="397" target="26" edge="1">
                    <mxGeometry relative="1" as="geometry">
                        <mxPoint x="733.79" y="929.4200000000001" as="sourcePoint"/>
                    </mxGeometry>
                </mxCell>
                <mxCell id="31" style="edgeStyle=orthogonalEdgeStyle;rounded=0;jumpStyle=none;jumpSize=6;orthogonalLoop=1;jettySize=auto;html=1;entryX=1;entryY=0.5;entryDx=0;entryDy=0;startArrow=none;startFill=0;endArrow=classic;endFill=1;startSize=1;endSize=1;strokeColor=#000000;strokeWidth=6;" parent="1" source="32" target="399" edge="1">
                    <mxGeometry relative="1" as="geometry">
                        <Array as="points">
                            <mxPoint x="1008" y="929"/>
                        </Array>
                        <mxPoint x="886.1799999999994" y="929.4200000000001" as="targetPoint"/>
                    </mxGeometry>
                </mxCell>
                <mxCell id="32" value="" style="whiteSpace=wrap;html=1;aspect=fixed;fillColor=#fff2cc;strokeColor=#000000;rotation=90;strokeWidth=6;" parent="1" vertex="1">
                    <mxGeometry x="957.5" y="700" width="100" height="100" as="geometry"/>
                </mxCell>
                <mxCell id="33" value="" style="whiteSpace=wrap;html=1;aspect=fixed;fillColor=#fff2cc;strokeColor=#000000;rotation=90;strokeWidth=6;" parent="1" vertex="1">
                    <mxGeometry x="1057.5" y="700" width="100" height="100" as="geometry"/>
                </mxCell>
                <mxCell id="34" value="" style="whiteSpace=wrap;html=1;aspect=fixed;fillColor=#fff2cc;strokeColor=#000000;rotation=90;strokeWidth=6;" parent="1" vertex="1">
                    <mxGeometry x="1157.5" y="700" width="100" height="100" as="geometry"/>
                </mxCell>
                <mxCell id="35" value="" style="endArrow=none;dashed=1;html=1;rounded=0;startSize=1;endSize=1;strokeColor=#000000;strokeWidth=6;jumpStyle=none;jumpSize=6;" parent="1" edge="1">
                    <mxGeometry width="50" height="50" relative="1" as="geometry">
                        <mxPoint x="1270.98" y="750" as="sourcePoint"/>
                        <mxPoint x="1360.98" y="750" as="targetPoint"/>
                    </mxGeometry>
                </mxCell>
                <mxCell id="36" value="" style="whiteSpace=wrap;html=1;aspect=fixed;fillColor=#fff2cc;strokeColor=#000000;rotation=90;strokeWidth=6;" parent="1" vertex="1">
                    <mxGeometry x="1370.98" y="700" width="100" height="100" as="geometry"/>
                </mxCell>
                <mxCell id="37" style="edgeStyle=orthogonalEdgeStyle;rounded=0;jumpStyle=none;jumpSize=6;orthogonalLoop=1;jettySize=auto;html=1;entryX=1;entryY=0.5;entryDx=0;entryDy=0;startArrow=none;startFill=0;endArrow=classic;endFill=1;startSize=1;endSize=1;strokeColor=#000000;strokeWidth=6;" parent="1" source="38" target="36" edge="1">
                    <mxGeometry relative="1" as="geometry"/>
                </mxCell>
                <mxCell id="38" value="" style="whiteSpace=wrap;html=1;aspect=fixed;fillColor=#f8cecc;strokeColor=#000000;strokeWidth=6;" parent="1" vertex="1">
                    <mxGeometry x="1471.5" y="880" width="98.84" height="98.84" as="geometry"/>
                </mxCell>
                <mxCell id="39" value="" style="whiteSpace=wrap;html=1;aspect=fixed;fillColor=#f8cecc;strokeColor=#000000;strokeWidth=6;" parent="1" vertex="1">
                    <mxGeometry x="1570.3400000000001" y="880" width="98.84" height="98.84" as="geometry"/>
                </mxCell>
                <mxCell id="40" value="" style="whiteSpace=wrap;html=1;aspect=fixed;fillColor=#f8cecc;strokeColor=#000000;strokeWidth=6;" parent="1" vertex="1">
                    <mxGeometry x="1669.18" y="880" width="98.84" height="98.84" as="geometry"/>
                </mxCell>
                <mxCell id="64" style="edgeStyle=orthogonalEdgeStyle;rounded=0;orthogonalLoop=1;jettySize=auto;html=1;entryX=0.388;entryY=0.003;entryDx=0;entryDy=0;entryPerimeter=0;strokeWidth=6;strokeColor=#000000;" parent="1" source="65" edge="1">
                    <mxGeometry relative="1" as="geometry">
                        <mxPoint x="849.2800000000007" y="460.1200000000001" as="targetPoint"/>
                    </mxGeometry>
                </mxCell>
                <mxCell id="65" value="&lt;span style=&quot;font-size: 43px ; font-weight: 700&quot;&gt;C2&lt;/span&gt;" style="whiteSpace=wrap;html=1;aspect=fixed;fillColor=#d5e8d4;strokeColor=#000000;strokeWidth=6;" parent="1" vertex="1">
                    <mxGeometry x="779.3600000000001" y="210" width="140" height="140" as="geometry"/>
                </mxCell>
                <mxCell id="66" style="edgeStyle=orthogonalEdgeStyle;rounded=0;jumpStyle=none;jumpSize=6;orthogonalLoop=1;jettySize=auto;html=1;entryX=1;entryY=0.5;entryDx=0;entryDy=0;startArrow=none;startFill=0;endArrow=classic;endFill=1;startSize=1;endSize=1;strokeColor=#000000;strokeWidth=6;" parent="1" source="8" target="40" edge="1">
                    <mxGeometry relative="1" as="geometry">
                        <Array as="points">
                            <mxPoint x="1890.98" y="480"/>
                            <mxPoint x="1890.98" y="929"/>
                        </Array>
                    </mxGeometry>
                </mxCell>
                <mxCell id="68" value="" style="endArrow=none;dashed=1;html=1;rounded=0;strokeWidth=6;jumpStyle=arc;strokeColor=#000000;" parent="1" edge="1">
                    <mxGeometry width="50" height="50" relative="1" as="geometry">
                        <mxPoint x="1810.98" y="958" as="sourcePoint"/>
                        <mxPoint x="1970.9800000000018" y="957.82" as="targetPoint"/>
                    </mxGeometry>
                </mxCell>
                <mxCell id="69" value="" style="endArrow=none;dashed=1;html=1;rounded=0;strokeWidth=6;jumpStyle=arc;strokeColor=#000000;" parent="1" edge="1">
                    <mxGeometry width="50" height="50" relative="1" as="geometry">
                        <mxPoint x="1520.9800000000018" y="749.0900000000004" as="sourcePoint"/>
                        <mxPoint x="1840.9800000000018" y="748.7499999999993" as="targetPoint"/>
                    </mxGeometry>
                </mxCell>
                <mxCell id="70" value="L3: Channel Memory" style="text;html=1;strokeColor=none;fillColor=none;align=left;verticalAlign=middle;whiteSpace=wrap;rounded=0;glass=0;fontSize=45;strokeWidth=6;fontStyle=1" parent="1" vertex="1">
                    <mxGeometry x="-464.02" y="440" width="270" height="190" as="geometry"/>
                </mxCell>
                <mxCell id="71" value="L2: Verticle Reuse Memory" style="text;html=1;strokeColor=none;fillColor=none;align=left;verticalAlign=middle;whiteSpace=wrap;rounded=0;glass=0;fontSize=45;strokeWidth=6;fontStyle=1" parent="1" vertex="1">
                    <mxGeometry x="-464.02" y="704.4200000000001" width="260" height="130" as="geometry"/>
                </mxCell>
                <mxCell id="72" value="L1: Horizontal Reuse Memory" style="text;html=1;strokeColor=none;fillColor=none;align=left;verticalAlign=middle;whiteSpace=wrap;rounded=0;glass=0;fontSize=43;fontStyle=1;strokeWidth=6;" parent="1" vertex="1">
                    <mxGeometry x="-464.02" y="874.42" width="290" height="130" as="geometry"/>
                </mxCell>
                <mxCell id="73" value="" style="endArrow=none;dashed=1;html=1;rounded=0;strokeWidth=6;jumpStyle=arc;strokeColor=#000000;" parent="1" edge="1">
                    <mxGeometry width="50" height="50" relative="1" as="geometry">
                        <mxPoint x="950.9199999999983" y="279.96000000000095" as="sourcePoint"/>
                        <mxPoint x="1190.9199999999983" y="280" as="targetPoint"/>
                    </mxGeometry>
                </mxCell>
                <mxCell id="74" value="X-2" style="whiteSpace=wrap;html=1;aspect=fixed;fillColor=#fff2cc;strokeColor=#000000;rotation=90;strokeWidth=6;fontSize=43;fontStyle=1;horizontal=0;" parent="1" vertex="1">
                    <mxGeometry x="957.5" y="700" width="100" height="100" as="geometry"/>
                </mxCell>
                <mxCell id="75" value="&lt;span style=&quot;font-size: 43px ; font-weight: 700&quot;&gt;X-3&lt;/span&gt;" style="whiteSpace=wrap;html=1;aspect=fixed;fillColor=#fff2cc;strokeColor=#000000;rotation=90;strokeWidth=6;horizontal=0;" parent="1" vertex="1">
                    <mxGeometry x="1057.5" y="700" width="100" height="100" as="geometry"/>
                </mxCell>
                <mxCell id="76" value="&lt;span style=&quot;font-size: 43px ; font-weight: 700&quot;&gt;X-4&lt;/span&gt;" style="whiteSpace=wrap;html=1;aspect=fixed;fillColor=#fff2cc;strokeColor=#000000;rotation=90;strokeWidth=6;horizontal=0;" parent="1" vertex="1">
                    <mxGeometry x="1157.5" y="700" width="100" height="100" as="geometry"/>
                </mxCell>
                <mxCell id="77" value="&lt;span style=&quot;font-size: 43px ; font-weight: 700&quot;&gt;0&lt;/span&gt;" style="whiteSpace=wrap;html=1;aspect=fixed;fillColor=#fff2cc;strokeColor=#000000;rotation=90;strokeWidth=6;horizontal=0;" parent="1" vertex="1">
                    <mxGeometry x="1370.98" y="700" width="100" height="100" as="geometry"/>
                </mxCell>
                <mxCell id="87" value="" style="rounded=1;whiteSpace=wrap;html=1;fillColor=#67AB9F;opacity=40;strokeColor=#000000;glass=0;strokeWidth=3;" parent="1" vertex="1">
                    <mxGeometry x="-335" y="1030" width="2245.98" height="1175" as="geometry"/>
                </mxCell>
                <mxCell id="88" value="" style="rounded=1;whiteSpace=wrap;html=1;fillColor=#E6D0DE;opacity=40;strokeColor=#000000;glass=0;strokeWidth=3;" parent="1" vertex="1">
                    <mxGeometry x="-500" y="1195" width="2350.98" height="725" as="geometry"/>
                </mxCell>
                <mxCell id="103" value="" style="ellipse;whiteSpace=wrap;html=1;aspect=fixed;fillColor=#67AB9F;strokeWidth=3;strokeColor=#000000;" parent="1" vertex="1">
                    <mxGeometry x="96.99999999999997" y="1205" width="70" height="70" as="geometry"/>
                </mxCell>
                <mxCell id="104" value="" style="endArrow=none;html=1;rounded=0;startSize=1;endSize=1;strokeColor=#000000;strokeWidth=7;jumpStyle=arc;jumpSize=6;exitX=0;exitY=0;exitDx=0;exitDy=0;entryX=1;entryY=1;entryDx=0;entryDy=0;" parent="1" source="103" target="103" edge="1">
                    <mxGeometry width="50" height="50" relative="1" as="geometry">
                        <mxPoint x="166.99999999999997" y="1225" as="sourcePoint"/>
                        <mxPoint x="216.99999999999997" y="1175" as="targetPoint"/>
                    </mxGeometry>
                </mxCell>
                <mxCell id="105" value="" style="endArrow=none;html=1;rounded=0;startSize=1;endSize=1;strokeColor=#000000;strokeWidth=7;jumpStyle=none;jumpSize=6;exitX=0;exitY=1;exitDx=0;exitDy=0;entryX=1;entryY=0;entryDx=0;entryDy=0;" parent="1" source="103" target="103" edge="1">
                    <mxGeometry width="50" height="50" relative="1" as="geometry">
                        <mxPoint x="117.25126265847436" y="1225.2512626584744" as="sourcePoint"/>
                        <mxPoint x="166.74873734152558" y="1274.7487373415252" as="targetPoint"/>
                    </mxGeometry>
                </mxCell>
                <mxCell id="106" value="" style="ellipse;whiteSpace=wrap;html=1;aspect=fixed;fillColor=#67AB9F;strokeWidth=3;strokeColor=#000000;" parent="1" vertex="1">
                    <mxGeometry x="96.99999999999997" y="1335" width="70" height="70" as="geometry"/>
                </mxCell>
                <mxCell id="107" value="" style="endArrow=none;html=1;rounded=0;startSize=1;endSize=1;strokeColor=#000000;strokeWidth=7;jumpStyle=arc;jumpSize=6;exitX=0;exitY=0;exitDx=0;exitDy=0;entryX=1;entryY=1;entryDx=0;entryDy=0;" parent="1" source="106" target="106" edge="1">
                    <mxGeometry width="50" height="50" relative="1" as="geometry">
                        <mxPoint x="166.99999999999997" y="1355" as="sourcePoint"/>
                        <mxPoint x="216.99999999999997" y="1305" as="targetPoint"/>
                    </mxGeometry>
                </mxCell>
                <mxCell id="108" value="" style="endArrow=none;html=1;rounded=0;startSize=1;endSize=1;strokeColor=#000000;strokeWidth=7;jumpStyle=none;jumpSize=6;exitX=0;exitY=1;exitDx=0;exitDy=0;entryX=1;entryY=0;entryDx=0;entryDy=0;" parent="1" source="106" target="106" edge="1">
                    <mxGeometry width="50" height="50" relative="1" as="geometry">
                        <mxPoint x="117.25126265847436" y="1355.2512626584744" as="sourcePoint"/>
                        <mxPoint x="166.74873734152558" y="1404.7487373415256" as="targetPoint"/>
                    </mxGeometry>
                </mxCell>
                <mxCell id="109" value="" style="ellipse;whiteSpace=wrap;html=1;aspect=fixed;fillColor=#67AB9F;strokeWidth=3;strokeColor=#000000;" parent="1" vertex="1">
                    <mxGeometry x="96.99999999999997" y="1455" width="70" height="70" as="geometry"/>
                </mxCell>
                <mxCell id="110" value="" style="endArrow=none;html=1;rounded=0;startSize=1;endSize=1;strokeColor=#000000;strokeWidth=7;jumpStyle=arc;jumpSize=6;exitX=0;exitY=0;exitDx=0;exitDy=0;entryX=1;entryY=1;entryDx=0;entryDy=0;" parent="1" source="109" target="109" edge="1">
                    <mxGeometry width="50" height="50" relative="1" as="geometry">
                        <mxPoint x="166.99999999999997" y="1475" as="sourcePoint"/>
                        <mxPoint x="216.99999999999997" y="1425" as="targetPoint"/>
                    </mxGeometry>
                </mxCell>
                <mxCell id="111" value="" style="endArrow=none;html=1;rounded=0;startSize=1;endSize=1;strokeColor=#000000;strokeWidth=7;jumpStyle=none;jumpSize=6;exitX=0;exitY=1;exitDx=0;exitDy=0;entryX=1;entryY=0;entryDx=0;entryDy=0;" parent="1" source="109" target="109" edge="1">
                    <mxGeometry width="50" height="50" relative="1" as="geometry">
                        <mxPoint x="117.25126265847436" y="1475.2512626584744" as="sourcePoint"/>
                        <mxPoint x="166.74873734152558" y="1524.7487373415256" as="targetPoint"/>
                    </mxGeometry>
                </mxCell>
                <mxCell id="112" value="" style="ellipse;whiteSpace=wrap;html=1;aspect=fixed;fillColor=#67AB9F;strokeWidth=3;strokeColor=#000000;" parent="1" vertex="1">
                    <mxGeometry x="96.99999999999997" y="1575" width="70" height="70" as="geometry"/>
                </mxCell>
                <mxCell id="113" value="" style="endArrow=none;html=1;rounded=0;startSize=1;endSize=1;strokeColor=#000000;strokeWidth=7;jumpStyle=arc;jumpSize=6;exitX=0;exitY=0;exitDx=0;exitDy=0;entryX=1;entryY=1;entryDx=0;entryDy=0;" parent="1" source="112" target="112" edge="1">
                    <mxGeometry width="50" height="50" relative="1" as="geometry">
                        <mxPoint x="166.99999999999997" y="1595" as="sourcePoint"/>
                        <mxPoint x="216.99999999999997" y="1545" as="targetPoint"/>
                    </mxGeometry>
                </mxCell>
                <mxCell id="114" value="" style="endArrow=none;html=1;rounded=0;startSize=1;endSize=1;strokeColor=#000000;strokeWidth=7;jumpStyle=none;jumpSize=6;exitX=0;exitY=1;exitDx=0;exitDy=0;entryX=1;entryY=0;entryDx=0;entryDy=0;" parent="1" source="112" target="112" edge="1">
                    <mxGeometry width="50" height="50" relative="1" as="geometry">
                        <mxPoint x="117.25126265847436" y="1595.2512626584744" as="sourcePoint"/>
                        <mxPoint x="166.74873734152558" y="1644.7487373415256" as="targetPoint"/>
                    </mxGeometry>
                </mxCell>
                <mxCell id="115" value="" style="ellipse;whiteSpace=wrap;html=1;aspect=fixed;fillColor=#67AB9F;strokeWidth=3;strokeColor=#000000;" parent="1" vertex="1">
                    <mxGeometry x="96.99999999999997" y="1705" width="70" height="70" as="geometry"/>
                </mxCell>
                <mxCell id="116" value="" style="endArrow=none;html=1;rounded=0;startSize=1;endSize=1;strokeColor=#000000;strokeWidth=7;jumpStyle=arc;jumpSize=6;exitX=0;exitY=0;exitDx=0;exitDy=0;entryX=1;entryY=1;entryDx=0;entryDy=0;" parent="1" source="115" target="115" edge="1">
                    <mxGeometry width="50" height="50" relative="1" as="geometry">
                        <mxPoint x="166.99999999999997" y="1725" as="sourcePoint"/>
                        <mxPoint x="216.99999999999997" y="1675" as="targetPoint"/>
                    </mxGeometry>
                </mxCell>
                <mxCell id="117" value="" style="endArrow=none;html=1;rounded=0;startSize=1;endSize=1;strokeColor=#000000;strokeWidth=7;jumpStyle=none;jumpSize=6;exitX=0;exitY=1;exitDx=0;exitDy=0;entryX=1;entryY=0;entryDx=0;entryDy=0;" parent="1" source="115" target="115" edge="1">
                    <mxGeometry width="50" height="50" relative="1" as="geometry">
                        <mxPoint x="117.25126265847436" y="1725.2512626584744" as="sourcePoint"/>
                        <mxPoint x="166.74873734152558" y="1774.7487373415256" as="targetPoint"/>
                    </mxGeometry>
                </mxCell>
                <mxCell id="118" value="" style="ellipse;whiteSpace=wrap;html=1;aspect=fixed;fillColor=#67AB9F;strokeWidth=3;strokeColor=#000000;" parent="1" vertex="1">
                    <mxGeometry x="96.99999999999997" y="1825" width="70" height="70" as="geometry"/>
                </mxCell>
                <mxCell id="119" value="" style="endArrow=none;html=1;rounded=0;startSize=1;endSize=1;strokeColor=#000000;strokeWidth=7;jumpStyle=arc;jumpSize=6;exitX=0;exitY=0;exitDx=0;exitDy=0;entryX=1;entryY=1;entryDx=0;entryDy=0;" parent="1" source="118" target="118" edge="1">
                    <mxGeometry width="50" height="50" relative="1" as="geometry">
                        <mxPoint x="166.99999999999997" y="1845" as="sourcePoint"/>
                        <mxPoint x="216.99999999999997" y="1795" as="targetPoint"/>
                    </mxGeometry>
                </mxCell>
                <mxCell id="120" value="" style="endArrow=none;html=1;rounded=0;startSize=1;endSize=1;strokeColor=#000000;strokeWidth=7;jumpStyle=none;jumpSize=6;exitX=0;exitY=1;exitDx=0;exitDy=0;entryX=1;entryY=0;entryDx=0;entryDy=0;" parent="1" source="118" target="118" edge="1">
                    <mxGeometry width="50" height="50" relative="1" as="geometry">
                        <mxPoint x="117.25126265847436" y="1845.2512626584744" as="sourcePoint"/>
                        <mxPoint x="166.74873734152558" y="1894.7487373415256" as="targetPoint"/>
                    </mxGeometry>
                </mxCell>
                <mxCell id="121" value="" style="ellipse;whiteSpace=wrap;html=1;aspect=fixed;fillColor=#67AB9F;strokeWidth=3;strokeColor=#000000;" parent="1" vertex="1">
                    <mxGeometry x="294" y="1205" width="70" height="70" as="geometry"/>
                </mxCell>
                <mxCell id="122" value="" style="endArrow=none;html=1;rounded=0;startSize=1;endSize=1;strokeColor=#000000;strokeWidth=7;jumpStyle=arc;jumpSize=6;exitX=0;exitY=0;exitDx=0;exitDy=0;entryX=1;entryY=1;entryDx=0;entryDy=0;" parent="1" source="121" target="121" edge="1">
                    <mxGeometry width="50" height="50" relative="1" as="geometry">
                        <mxPoint x="364" y="1225" as="sourcePoint"/>
                        <mxPoint x="414" y="1175" as="targetPoint"/>
                    </mxGeometry>
                </mxCell>
                <mxCell id="123" value="" style="endArrow=none;html=1;rounded=0;startSize=1;endSize=1;strokeColor=#000000;strokeWidth=7;jumpStyle=none;jumpSize=6;exitX=0;exitY=1;exitDx=0;exitDy=0;entryX=1;entryY=0;entryDx=0;entryDy=0;" parent="1" source="121" target="121" edge="1">
                    <mxGeometry width="50" height="50" relative="1" as="geometry">
                        <mxPoint x="314.2512626584744" y="1225.2512626584744" as="sourcePoint"/>
                        <mxPoint x="363.7487373415256" y="1274.7487373415252" as="targetPoint"/>
                    </mxGeometry>
                </mxCell>
                <mxCell id="124" value="" style="ellipse;whiteSpace=wrap;html=1;aspect=fixed;fillColor=#67AB9F;strokeWidth=3;strokeColor=#000000;" parent="1" vertex="1">
                    <mxGeometry x="294" y="1335" width="70" height="70" as="geometry"/>
                </mxCell>
                <mxCell id="125" value="" style="endArrow=none;html=1;rounded=0;startSize=1;endSize=1;strokeColor=#000000;strokeWidth=7;jumpStyle=arc;jumpSize=6;exitX=0;exitY=0;exitDx=0;exitDy=0;entryX=1;entryY=1;entryDx=0;entryDy=0;" parent="1" source="124" target="124" edge="1">
                    <mxGeometry width="50" height="50" relative="1" as="geometry">
                        <mxPoint x="364" y="1355" as="sourcePoint"/>
                        <mxPoint x="414" y="1305" as="targetPoint"/>
                    </mxGeometry>
                </mxCell>
                <mxCell id="126" value="" style="endArrow=none;html=1;rounded=0;startSize=1;endSize=1;strokeColor=#000000;strokeWidth=7;jumpStyle=none;jumpSize=6;exitX=0;exitY=1;exitDx=0;exitDy=0;entryX=1;entryY=0;entryDx=0;entryDy=0;" parent="1" source="124" target="124" edge="1">
                    <mxGeometry width="50" height="50" relative="1" as="geometry">
                        <mxPoint x="314.2512626584744" y="1355.2512626584744" as="sourcePoint"/>
                        <mxPoint x="363.7487373415256" y="1404.7487373415256" as="targetPoint"/>
                    </mxGeometry>
                </mxCell>
                <mxCell id="127" value="" style="ellipse;whiteSpace=wrap;html=1;aspect=fixed;fillColor=#67AB9F;strokeWidth=3;strokeColor=#000000;" parent="1" vertex="1">
                    <mxGeometry x="294" y="1455" width="70" height="70" as="geometry"/>
                </mxCell>
                <mxCell id="128" value="" style="endArrow=none;html=1;rounded=0;startSize=1;endSize=1;strokeColor=#000000;strokeWidth=7;jumpStyle=arc;jumpSize=6;exitX=0;exitY=0;exitDx=0;exitDy=0;entryX=1;entryY=1;entryDx=0;entryDy=0;" parent="1" source="127" target="127" edge="1">
                    <mxGeometry width="50" height="50" relative="1" as="geometry">
                        <mxPoint x="364" y="1475" as="sourcePoint"/>
                        <mxPoint x="414" y="1425" as="targetPoint"/>
                    </mxGeometry>
                </mxCell>
                <mxCell id="129" value="" style="endArrow=none;html=1;rounded=0;startSize=1;endSize=1;strokeColor=#000000;strokeWidth=7;jumpStyle=none;jumpSize=6;exitX=0;exitY=1;exitDx=0;exitDy=0;entryX=1;entryY=0;entryDx=0;entryDy=0;" parent="1" source="127" target="127" edge="1">
                    <mxGeometry width="50" height="50" relative="1" as="geometry">
                        <mxPoint x="314.2512626584744" y="1475.2512626584744" as="sourcePoint"/>
                        <mxPoint x="363.7487373415256" y="1524.7487373415256" as="targetPoint"/>
                    </mxGeometry>
                </mxCell>
                <mxCell id="130" value="" style="ellipse;whiteSpace=wrap;html=1;aspect=fixed;fillColor=#67AB9F;strokeWidth=3;strokeColor=#000000;" parent="1" vertex="1">
                    <mxGeometry x="294" y="1575" width="70" height="70" as="geometry"/>
                </mxCell>
                <mxCell id="131" value="" style="endArrow=none;html=1;rounded=0;startSize=1;endSize=1;strokeColor=#000000;strokeWidth=7;jumpStyle=arc;jumpSize=6;exitX=0;exitY=0;exitDx=0;exitDy=0;entryX=1;entryY=1;entryDx=0;entryDy=0;" parent="1" source="130" target="130" edge="1">
                    <mxGeometry width="50" height="50" relative="1" as="geometry">
                        <mxPoint x="364" y="1595" as="sourcePoint"/>
                        <mxPoint x="414" y="1545" as="targetPoint"/>
                    </mxGeometry>
                </mxCell>
                <mxCell id="132" value="" style="endArrow=none;html=1;rounded=0;startSize=1;endSize=1;strokeColor=#000000;strokeWidth=7;jumpStyle=none;jumpSize=6;exitX=0;exitY=1;exitDx=0;exitDy=0;entryX=1;entryY=0;entryDx=0;entryDy=0;" parent="1" source="130" target="130" edge="1">
                    <mxGeometry width="50" height="50" relative="1" as="geometry">
                        <mxPoint x="314.2512626584744" y="1595.2512626584744" as="sourcePoint"/>
                        <mxPoint x="363.7487373415256" y="1644.7487373415256" as="targetPoint"/>
                    </mxGeometry>
                </mxCell>
                <mxCell id="133" value="" style="ellipse;whiteSpace=wrap;html=1;aspect=fixed;fillColor=#67AB9F;strokeWidth=3;strokeColor=#000000;" parent="1" vertex="1">
                    <mxGeometry x="294" y="1705" width="70" height="70" as="geometry"/>
                </mxCell>
                <mxCell id="134" value="" style="endArrow=none;html=1;rounded=0;startSize=1;endSize=1;strokeColor=#000000;strokeWidth=7;jumpStyle=arc;jumpSize=6;exitX=0;exitY=0;exitDx=0;exitDy=0;entryX=1;entryY=1;entryDx=0;entryDy=0;" parent="1" source="133" target="133" edge="1">
                    <mxGeometry width="50" height="50" relative="1" as="geometry">
                        <mxPoint x="364" y="1725" as="sourcePoint"/>
                        <mxPoint x="414" y="1675" as="targetPoint"/>
                    </mxGeometry>
                </mxCell>
                <mxCell id="135" value="" style="endArrow=none;html=1;rounded=0;startSize=1;endSize=1;strokeColor=#000000;strokeWidth=7;jumpStyle=none;jumpSize=6;exitX=0;exitY=1;exitDx=0;exitDy=0;entryX=1;entryY=0;entryDx=0;entryDy=0;" parent="1" source="133" target="133" edge="1">
                    <mxGeometry width="50" height="50" relative="1" as="geometry">
                        <mxPoint x="314.2512626584744" y="1725.2512626584744" as="sourcePoint"/>
                        <mxPoint x="363.7487373415256" y="1774.7487373415256" as="targetPoint"/>
                    </mxGeometry>
                </mxCell>
                <mxCell id="136" value="" style="ellipse;whiteSpace=wrap;html=1;aspect=fixed;fillColor=#67AB9F;strokeWidth=3;strokeColor=#000000;" parent="1" vertex="1">
                    <mxGeometry x="294" y="1825" width="70" height="70" as="geometry"/>
                </mxCell>
                <mxCell id="137" value="" style="endArrow=none;html=1;rounded=0;startSize=1;endSize=1;strokeColor=#000000;strokeWidth=7;jumpStyle=arc;jumpSize=6;exitX=0;exitY=0;exitDx=0;exitDy=0;entryX=1;entryY=1;entryDx=0;entryDy=0;" parent="1" source="136" target="136" edge="1">
                    <mxGeometry width="50" height="50" relative="1" as="geometry">
                        <mxPoint x="364" y="1845" as="sourcePoint"/>
                        <mxPoint x="414" y="1795" as="targetPoint"/>
                    </mxGeometry>
                </mxCell>
                <mxCell id="138" value="" style="endArrow=none;html=1;rounded=0;startSize=1;endSize=1;strokeColor=#000000;strokeWidth=7;jumpStyle=none;jumpSize=6;exitX=0;exitY=1;exitDx=0;exitDy=0;entryX=1;entryY=0;entryDx=0;entryDy=0;" parent="1" source="136" target="136" edge="1">
                    <mxGeometry width="50" height="50" relative="1" as="geometry">
                        <mxPoint x="314.2512626584744" y="1845.2512626584744" as="sourcePoint"/>
                        <mxPoint x="363.7487373415256" y="1894.7487373415256" as="targetPoint"/>
                    </mxGeometry>
                </mxCell>
                <mxCell id="139" value="" style="ellipse;whiteSpace=wrap;html=1;aspect=fixed;fillColor=#67AB9F;strokeWidth=3;strokeColor=#000000;" parent="1" vertex="1">
                    <mxGeometry x="480" y="1205" width="70" height="70" as="geometry"/>
                </mxCell>
                <mxCell id="140" value="" style="endArrow=none;html=1;rounded=0;startSize=1;endSize=1;strokeColor=#000000;strokeWidth=7;jumpStyle=arc;jumpSize=6;exitX=0;exitY=0;exitDx=0;exitDy=0;entryX=1;entryY=1;entryDx=0;entryDy=0;" parent="1" source="139" target="139" edge="1">
                    <mxGeometry width="50" height="50" relative="1" as="geometry">
                        <mxPoint x="550" y="1225" as="sourcePoint"/>
                        <mxPoint x="600" y="1175" as="targetPoint"/>
                    </mxGeometry>
                </mxCell>
                <mxCell id="141" value="" style="endArrow=none;html=1;rounded=0;startSize=1;endSize=1;strokeColor=#000000;strokeWidth=7;jumpStyle=none;jumpSize=6;exitX=0;exitY=1;exitDx=0;exitDy=0;entryX=1;entryY=0;entryDx=0;entryDy=0;" parent="1" source="139" target="139" edge="1">
                    <mxGeometry width="50" height="50" relative="1" as="geometry">
                        <mxPoint x="500.2512626584744" y="1225.2512626584744" as="sourcePoint"/>
                        <mxPoint x="549.7487373415256" y="1274.7487373415252" as="targetPoint"/>
                    </mxGeometry>
                </mxCell>
                <mxCell id="142" value="" style="ellipse;whiteSpace=wrap;html=1;aspect=fixed;fillColor=#67AB9F;strokeWidth=3;strokeColor=#000000;" parent="1" vertex="1">
                    <mxGeometry x="480" y="1335" width="70" height="70" as="geometry"/>
                </mxCell>
                <mxCell id="143" value="" style="endArrow=none;html=1;rounded=0;startSize=1;endSize=1;strokeColor=#000000;strokeWidth=7;jumpStyle=arc;jumpSize=6;exitX=0;exitY=0;exitDx=0;exitDy=0;entryX=1;entryY=1;entryDx=0;entryDy=0;" parent="1" source="142" target="142" edge="1">
                    <mxGeometry width="50" height="50" relative="1" as="geometry">
                        <mxPoint x="550" y="1355" as="sourcePoint"/>
                        <mxPoint x="600" y="1305" as="targetPoint"/>
                    </mxGeometry>
                </mxCell>
                <mxCell id="144" value="" style="endArrow=none;html=1;rounded=0;startSize=1;endSize=1;strokeColor=#000000;strokeWidth=7;jumpStyle=none;jumpSize=6;exitX=0;exitY=1;exitDx=0;exitDy=0;entryX=1;entryY=0;entryDx=0;entryDy=0;" parent="1" source="142" target="142" edge="1">
                    <mxGeometry width="50" height="50" relative="1" as="geometry">
                        <mxPoint x="500.2512626584744" y="1355.2512626584744" as="sourcePoint"/>
                        <mxPoint x="549.7487373415256" y="1404.7487373415256" as="targetPoint"/>
                    </mxGeometry>
                </mxCell>
                <mxCell id="145" value="" style="ellipse;whiteSpace=wrap;html=1;aspect=fixed;fillColor=#67AB9F;strokeWidth=3;strokeColor=#000000;" parent="1" vertex="1">
                    <mxGeometry x="480" y="1455" width="70" height="70" as="geometry"/>
                </mxCell>
                <mxCell id="146" value="" style="endArrow=none;html=1;rounded=0;startSize=1;endSize=1;strokeColor=#000000;strokeWidth=7;jumpStyle=arc;jumpSize=6;exitX=0;exitY=0;exitDx=0;exitDy=0;entryX=1;entryY=1;entryDx=0;entryDy=0;" parent="1" source="145" target="145" edge="1">
                    <mxGeometry width="50" height="50" relative="1" as="geometry">
                        <mxPoint x="550" y="1475" as="sourcePoint"/>
                        <mxPoint x="600" y="1425" as="targetPoint"/>
                    </mxGeometry>
                </mxCell>
                <mxCell id="147" value="" style="endArrow=none;html=1;rounded=0;startSize=1;endSize=1;strokeColor=#000000;strokeWidth=7;jumpStyle=none;jumpSize=6;exitX=0;exitY=1;exitDx=0;exitDy=0;entryX=1;entryY=0;entryDx=0;entryDy=0;" parent="1" source="145" target="145" edge="1">
                    <mxGeometry width="50" height="50" relative="1" as="geometry">
                        <mxPoint x="500.2512626584744" y="1475.2512626584744" as="sourcePoint"/>
                        <mxPoint x="549.7487373415256" y="1524.7487373415256" as="targetPoint"/>
                    </mxGeometry>
                </mxCell>
                <mxCell id="148" value="" style="ellipse;whiteSpace=wrap;html=1;aspect=fixed;fillColor=#67AB9F;strokeWidth=3;strokeColor=#000000;" parent="1" vertex="1">
                    <mxGeometry x="480" y="1575" width="70" height="70" as="geometry"/>
                </mxCell>
                <mxCell id="149" value="" style="endArrow=none;html=1;rounded=0;startSize=1;endSize=1;strokeColor=#000000;strokeWidth=7;jumpStyle=arc;jumpSize=6;exitX=0;exitY=0;exitDx=0;exitDy=0;entryX=1;entryY=1;entryDx=0;entryDy=0;" parent="1" source="148" target="148" edge="1">
                    <mxGeometry width="50" height="50" relative="1" as="geometry">
                        <mxPoint x="550" y="1595" as="sourcePoint"/>
                        <mxPoint x="600" y="1545" as="targetPoint"/>
                    </mxGeometry>
                </mxCell>
                <mxCell id="150" value="" style="endArrow=none;html=1;rounded=0;startSize=1;endSize=1;strokeColor=#000000;strokeWidth=7;jumpStyle=none;jumpSize=6;exitX=0;exitY=1;exitDx=0;exitDy=0;entryX=1;entryY=0;entryDx=0;entryDy=0;" parent="1" source="148" target="148" edge="1">
                    <mxGeometry width="50" height="50" relative="1" as="geometry">
                        <mxPoint x="500.2512626584744" y="1595.2512626584744" as="sourcePoint"/>
                        <mxPoint x="549.7487373415256" y="1644.7487373415256" as="targetPoint"/>
                    </mxGeometry>
                </mxCell>
                <mxCell id="151" value="" style="ellipse;whiteSpace=wrap;html=1;aspect=fixed;fillColor=#67AB9F;strokeWidth=3;strokeColor=#000000;" parent="1" vertex="1">
                    <mxGeometry x="480" y="1705" width="70" height="70" as="geometry"/>
                </mxCell>
                <mxCell id="152" value="" style="endArrow=none;html=1;rounded=0;startSize=1;endSize=1;strokeColor=#000000;strokeWidth=7;jumpStyle=arc;jumpSize=6;exitX=0;exitY=0;exitDx=0;exitDy=0;entryX=1;entryY=1;entryDx=0;entryDy=0;" parent="1" source="151" target="151" edge="1">
                    <mxGeometry width="50" height="50" relative="1" as="geometry">
                        <mxPoint x="550" y="1725" as="sourcePoint"/>
                        <mxPoint x="600" y="1675" as="targetPoint"/>
                    </mxGeometry>
                </mxCell>
                <mxCell id="153" value="" style="endArrow=none;html=1;rounded=0;startSize=1;endSize=1;strokeColor=#000000;strokeWidth=7;jumpStyle=none;jumpSize=6;exitX=0;exitY=1;exitDx=0;exitDy=0;entryX=1;entryY=0;entryDx=0;entryDy=0;" parent="1" source="151" target="151" edge="1">
                    <mxGeometry width="50" height="50" relative="1" as="geometry">
                        <mxPoint x="500.2512626584744" y="1725.2512626584744" as="sourcePoint"/>
                        <mxPoint x="549.7487373415256" y="1774.7487373415256" as="targetPoint"/>
                    </mxGeometry>
                </mxCell>
                <mxCell id="154" value="" style="ellipse;whiteSpace=wrap;html=1;aspect=fixed;fillColor=#67AB9F;strokeWidth=3;strokeColor=#000000;" parent="1" vertex="1">
                    <mxGeometry x="480" y="1825" width="70" height="70" as="geometry"/>
                </mxCell>
                <mxCell id="155" value="" style="endArrow=none;html=1;rounded=0;startSize=1;endSize=1;strokeColor=#000000;strokeWidth=7;jumpStyle=arc;jumpSize=6;exitX=0;exitY=0;exitDx=0;exitDy=0;entryX=1;entryY=1;entryDx=0;entryDy=0;" parent="1" source="154" target="154" edge="1">
                    <mxGeometry width="50" height="50" relative="1" as="geometry">
                        <mxPoint x="550" y="1845" as="sourcePoint"/>
                        <mxPoint x="600" y="1795" as="targetPoint"/>
                    </mxGeometry>
                </mxCell>
                <mxCell id="156" value="" style="endArrow=none;html=1;rounded=0;startSize=1;endSize=1;strokeColor=#000000;strokeWidth=7;jumpStyle=none;jumpSize=6;exitX=0;exitY=1;exitDx=0;exitDy=0;entryX=1;entryY=0;entryDx=0;entryDy=0;" parent="1" source="154" target="154" edge="1">
                    <mxGeometry width="50" height="50" relative="1" as="geometry">
                        <mxPoint x="500.2512626584744" y="1845.2512626584744" as="sourcePoint"/>
                        <mxPoint x="549.7487373415256" y="1894.7487373415256" as="targetPoint"/>
                    </mxGeometry>
                </mxCell>
                <mxCell id="157" value="" style="ellipse;whiteSpace=wrap;html=1;aspect=fixed;fillColor=#67AB9F;strokeWidth=3;strokeColor=#000000;" parent="1" vertex="1">
                    <mxGeometry x="677" y="1205" width="70" height="70" as="geometry"/>
                </mxCell>
                <mxCell id="158" value="" style="endArrow=none;html=1;rounded=0;startSize=1;endSize=1;strokeColor=#000000;strokeWidth=7;jumpStyle=arc;jumpSize=6;exitX=0;exitY=0;exitDx=0;exitDy=0;entryX=1;entryY=1;entryDx=0;entryDy=0;" parent="1" source="157" target="157" edge="1">
                    <mxGeometry width="50" height="50" relative="1" as="geometry">
                        <mxPoint x="747" y="1225" as="sourcePoint"/>
                        <mxPoint x="797" y="1175" as="targetPoint"/>
                    </mxGeometry>
                </mxCell>
                <mxCell id="159" value="" style="endArrow=none;html=1;rounded=0;startSize=1;endSize=1;strokeColor=#000000;strokeWidth=7;jumpStyle=none;jumpSize=6;exitX=0;exitY=1;exitDx=0;exitDy=0;entryX=1;entryY=0;entryDx=0;entryDy=0;" parent="1" source="157" target="157" edge="1">
                    <mxGeometry width="50" height="50" relative="1" as="geometry">
                        <mxPoint x="697.2512626584744" y="1225.2512626584744" as="sourcePoint"/>
                        <mxPoint x="746.7487373415256" y="1274.7487373415252" as="targetPoint"/>
                    </mxGeometry>
                </mxCell>
                <mxCell id="160" value="" style="ellipse;whiteSpace=wrap;html=1;aspect=fixed;fillColor=#67AB9F;strokeWidth=3;strokeColor=#000000;" parent="1" vertex="1">
                    <mxGeometry x="677" y="1335" width="70" height="70" as="geometry"/>
                </mxCell>
                <mxCell id="161" value="" style="endArrow=none;html=1;rounded=0;startSize=1;endSize=1;strokeColor=#000000;strokeWidth=7;jumpStyle=arc;jumpSize=6;exitX=0;exitY=0;exitDx=0;exitDy=0;entryX=1;entryY=1;entryDx=0;entryDy=0;" parent="1" source="160" target="160" edge="1">
                    <mxGeometry width="50" height="50" relative="1" as="geometry">
                        <mxPoint x="747" y="1355" as="sourcePoint"/>
                        <mxPoint x="797" y="1305" as="targetPoint"/>
                    </mxGeometry>
                </mxCell>
                <mxCell id="162" value="" style="endArrow=none;html=1;rounded=0;startSize=1;endSize=1;strokeColor=#000000;strokeWidth=7;jumpStyle=none;jumpSize=6;exitX=0;exitY=1;exitDx=0;exitDy=0;entryX=1;entryY=0;entryDx=0;entryDy=0;" parent="1" source="160" target="160" edge="1">
                    <mxGeometry width="50" height="50" relative="1" as="geometry">
                        <mxPoint x="697.2512626584744" y="1355.2512626584744" as="sourcePoint"/>
                        <mxPoint x="746.7487373415256" y="1404.7487373415256" as="targetPoint"/>
                    </mxGeometry>
                </mxCell>
                <mxCell id="163" value="" style="ellipse;whiteSpace=wrap;html=1;aspect=fixed;fillColor=#67AB9F;strokeWidth=3;strokeColor=#000000;" parent="1" vertex="1">
                    <mxGeometry x="677" y="1455" width="70" height="70" as="geometry"/>
                </mxCell>
                <mxCell id="164" value="" style="endArrow=none;html=1;rounded=0;startSize=1;endSize=1;strokeColor=#000000;strokeWidth=7;jumpStyle=arc;jumpSize=6;exitX=0;exitY=0;exitDx=0;exitDy=0;entryX=1;entryY=1;entryDx=0;entryDy=0;" parent="1" source="163" target="163" edge="1">
                    <mxGeometry width="50" height="50" relative="1" as="geometry">
                        <mxPoint x="747" y="1475" as="sourcePoint"/>
                        <mxPoint x="797" y="1425" as="targetPoint"/>
                    </mxGeometry>
                </mxCell>
                <mxCell id="165" value="" style="endArrow=none;html=1;rounded=0;startSize=1;endSize=1;strokeColor=#000000;strokeWidth=7;jumpStyle=none;jumpSize=6;exitX=0;exitY=1;exitDx=0;exitDy=0;entryX=1;entryY=0;entryDx=0;entryDy=0;" parent="1" source="163" target="163" edge="1">
                    <mxGeometry width="50" height="50" relative="1" as="geometry">
                        <mxPoint x="697.2512626584744" y="1475.2512626584744" as="sourcePoint"/>
                        <mxPoint x="746.7487373415256" y="1524.7487373415256" as="targetPoint"/>
                    </mxGeometry>
                </mxCell>
                <mxCell id="166" value="" style="ellipse;whiteSpace=wrap;html=1;aspect=fixed;fillColor=#67AB9F;strokeWidth=3;strokeColor=#000000;" parent="1" vertex="1">
                    <mxGeometry x="677" y="1575" width="70" height="70" as="geometry"/>
                </mxCell>
                <mxCell id="167" value="" style="endArrow=none;html=1;rounded=0;startSize=1;endSize=1;strokeColor=#000000;strokeWidth=7;jumpStyle=arc;jumpSize=6;exitX=0;exitY=0;exitDx=0;exitDy=0;entryX=1;entryY=1;entryDx=0;entryDy=0;" parent="1" source="166" target="166" edge="1">
                    <mxGeometry width="50" height="50" relative="1" as="geometry">
                        <mxPoint x="747" y="1595" as="sourcePoint"/>
                        <mxPoint x="797" y="1545" as="targetPoint"/>
                    </mxGeometry>
                </mxCell>
                <mxCell id="168" value="" style="endArrow=none;html=1;rounded=0;startSize=1;endSize=1;strokeColor=#000000;strokeWidth=7;jumpStyle=none;jumpSize=6;exitX=0;exitY=1;exitDx=0;exitDy=0;entryX=1;entryY=0;entryDx=0;entryDy=0;" parent="1" source="166" target="166" edge="1">
                    <mxGeometry width="50" height="50" relative="1" as="geometry">
                        <mxPoint x="697.2512626584744" y="1595.2512626584744" as="sourcePoint"/>
                        <mxPoint x="746.7487373415256" y="1644.7487373415256" as="targetPoint"/>
                    </mxGeometry>
                </mxCell>
                <mxCell id="169" value="" style="ellipse;whiteSpace=wrap;html=1;aspect=fixed;fillColor=#67AB9F;strokeWidth=3;strokeColor=#000000;" parent="1" vertex="1">
                    <mxGeometry x="677" y="1705" width="70" height="70" as="geometry"/>
                </mxCell>
                <mxCell id="170" value="" style="endArrow=none;html=1;rounded=0;startSize=1;endSize=1;strokeColor=#000000;strokeWidth=7;jumpStyle=arc;jumpSize=6;exitX=0;exitY=0;exitDx=0;exitDy=0;entryX=1;entryY=1;entryDx=0;entryDy=0;" parent="1" source="169" target="169" edge="1">
                    <mxGeometry width="50" height="50" relative="1" as="geometry">
                        <mxPoint x="747" y="1725" as="sourcePoint"/>
                        <mxPoint x="797" y="1675" as="targetPoint"/>
                    </mxGeometry>
                </mxCell>
                <mxCell id="171" value="" style="endArrow=none;html=1;rounded=0;startSize=1;endSize=1;strokeColor=#000000;strokeWidth=7;jumpStyle=none;jumpSize=6;exitX=0;exitY=1;exitDx=0;exitDy=0;entryX=1;entryY=0;entryDx=0;entryDy=0;" parent="1" source="169" target="169" edge="1">
                    <mxGeometry width="50" height="50" relative="1" as="geometry">
                        <mxPoint x="697.2512626584744" y="1725.2512626584744" as="sourcePoint"/>
                        <mxPoint x="746.7487373415256" y="1774.7487373415256" as="targetPoint"/>
                    </mxGeometry>
                </mxCell>
                <mxCell id="172" value="" style="ellipse;whiteSpace=wrap;html=1;aspect=fixed;fillColor=#67AB9F;strokeWidth=3;strokeColor=#000000;" parent="1" vertex="1">
                    <mxGeometry x="677" y="1825" width="70" height="70" as="geometry"/>
                </mxCell>
                <mxCell id="173" value="" style="endArrow=none;html=1;rounded=0;startSize=1;endSize=1;strokeColor=#000000;strokeWidth=7;jumpStyle=arc;jumpSize=6;exitX=0;exitY=0;exitDx=0;exitDy=0;entryX=1;entryY=1;entryDx=0;entryDy=0;" parent="1" source="172" target="172" edge="1">
                    <mxGeometry width="50" height="50" relative="1" as="geometry">
                        <mxPoint x="747" y="1845" as="sourcePoint"/>
                        <mxPoint x="797" y="1795" as="targetPoint"/>
                    </mxGeometry>
                </mxCell>
                <mxCell id="174" value="" style="endArrow=none;html=1;rounded=0;startSize=1;endSize=1;strokeColor=#000000;strokeWidth=7;jumpStyle=none;jumpSize=6;exitX=0;exitY=1;exitDx=0;exitDy=0;entryX=1;entryY=0;entryDx=0;entryDy=0;" parent="1" source="172" target="172" edge="1">
                    <mxGeometry width="50" height="50" relative="1" as="geometry">
                        <mxPoint x="697.2512626584744" y="1845.2512626584744" as="sourcePoint"/>
                        <mxPoint x="746.7487373415256" y="1894.7487373415256" as="targetPoint"/>
                    </mxGeometry>
                </mxCell>
                <mxCell id="175" value="" style="ellipse;whiteSpace=wrap;html=1;aspect=fixed;fillColor=#67AB9F;strokeWidth=3;strokeColor=#000000;" parent="1" vertex="1">
                    <mxGeometry x="869.5999999999999" y="1205" width="70" height="70" as="geometry"/>
                </mxCell>
                <mxCell id="176" value="" style="endArrow=none;html=1;rounded=0;startSize=1;endSize=1;strokeColor=#000000;strokeWidth=7;jumpStyle=arc;jumpSize=6;exitX=0;exitY=0;exitDx=0;exitDy=0;entryX=1;entryY=1;entryDx=0;entryDy=0;" parent="1" source="175" target="175" edge="1">
                    <mxGeometry width="50" height="50" relative="1" as="geometry">
                        <mxPoint x="939.5999999999999" y="1225" as="sourcePoint"/>
                        <mxPoint x="989.5999999999999" y="1175" as="targetPoint"/>
                    </mxGeometry>
                </mxCell>
                <mxCell id="177" value="" style="endArrow=none;html=1;rounded=0;startSize=1;endSize=1;strokeColor=#000000;strokeWidth=7;jumpStyle=none;jumpSize=6;exitX=0;exitY=1;exitDx=0;exitDy=0;entryX=1;entryY=0;entryDx=0;entryDy=0;" parent="1" source="175" target="175" edge="1">
                    <mxGeometry width="50" height="50" relative="1" as="geometry">
                        <mxPoint x="889.8512626584743" y="1225.2512626584744" as="sourcePoint"/>
                        <mxPoint x="939.3487373415255" y="1274.7487373415252" as="targetPoint"/>
                    </mxGeometry>
                </mxCell>
                <mxCell id="178" value="" style="ellipse;whiteSpace=wrap;html=1;aspect=fixed;fillColor=#67AB9F;strokeWidth=3;strokeColor=#000000;" parent="1" vertex="1">
                    <mxGeometry x="869.5999999999999" y="1335" width="70" height="70" as="geometry"/>
                </mxCell>
                <mxCell id="179" value="" style="endArrow=none;html=1;rounded=0;startSize=1;endSize=1;strokeColor=#000000;strokeWidth=7;jumpStyle=arc;jumpSize=6;exitX=0;exitY=0;exitDx=0;exitDy=0;entryX=1;entryY=1;entryDx=0;entryDy=0;" parent="1" source="178" target="178" edge="1">
                    <mxGeometry width="50" height="50" relative="1" as="geometry">
                        <mxPoint x="939.5999999999999" y="1355" as="sourcePoint"/>
                        <mxPoint x="989.5999999999999" y="1305" as="targetPoint"/>
                    </mxGeometry>
                </mxCell>
                <mxCell id="180" value="" style="endArrow=none;html=1;rounded=0;startSize=1;endSize=1;strokeColor=#000000;strokeWidth=7;jumpStyle=none;jumpSize=6;exitX=0;exitY=1;exitDx=0;exitDy=0;entryX=1;entryY=0;entryDx=0;entryDy=0;" parent="1" source="178" target="178" edge="1">
                    <mxGeometry width="50" height="50" relative="1" as="geometry">
                        <mxPoint x="889.8512626584743" y="1355.2512626584744" as="sourcePoint"/>
                        <mxPoint x="939.3487373415255" y="1404.7487373415256" as="targetPoint"/>
                    </mxGeometry>
                </mxCell>
                <mxCell id="181" value="" style="ellipse;whiteSpace=wrap;html=1;aspect=fixed;fillColor=#67AB9F;strokeWidth=3;strokeColor=#000000;" parent="1" vertex="1">
                    <mxGeometry x="869.5999999999999" y="1455" width="70" height="70" as="geometry"/>
                </mxCell>
                <mxCell id="182" value="" style="endArrow=none;html=1;rounded=0;startSize=1;endSize=1;strokeColor=#000000;strokeWidth=7;jumpStyle=arc;jumpSize=6;exitX=0;exitY=0;exitDx=0;exitDy=0;entryX=1;entryY=1;entryDx=0;entryDy=0;" parent="1" source="181" target="181" edge="1">
                    <mxGeometry width="50" height="50" relative="1" as="geometry">
                        <mxPoint x="939.5999999999999" y="1475" as="sourcePoint"/>
                        <mxPoint x="989.5999999999999" y="1425" as="targetPoint"/>
                    </mxGeometry>
                </mxCell>
                <mxCell id="183" value="" style="endArrow=none;html=1;rounded=0;startSize=1;endSize=1;strokeColor=#000000;strokeWidth=7;jumpStyle=none;jumpSize=6;exitX=0;exitY=1;exitDx=0;exitDy=0;entryX=1;entryY=0;entryDx=0;entryDy=0;" parent="1" source="181" target="181" edge="1">
                    <mxGeometry width="50" height="50" relative="1" as="geometry">
                        <mxPoint x="889.8512626584743" y="1475.2512626584744" as="sourcePoint"/>
                        <mxPoint x="939.3487373415255" y="1524.7487373415256" as="targetPoint"/>
                    </mxGeometry>
                </mxCell>
                <mxCell id="184" value="" style="ellipse;whiteSpace=wrap;html=1;aspect=fixed;fillColor=#67AB9F;strokeWidth=3;strokeColor=#000000;" parent="1" vertex="1">
                    <mxGeometry x="869.5999999999999" y="1575" width="70" height="70" as="geometry"/>
                </mxCell>
                <mxCell id="185" value="" style="endArrow=none;html=1;rounded=0;startSize=1;endSize=1;strokeColor=#000000;strokeWidth=7;jumpStyle=arc;jumpSize=6;exitX=0;exitY=0;exitDx=0;exitDy=0;entryX=1;entryY=1;entryDx=0;entryDy=0;" parent="1" source="184" target="184" edge="1">
                    <mxGeometry width="50" height="50" relative="1" as="geometry">
                        <mxPoint x="939.5999999999999" y="1595" as="sourcePoint"/>
                        <mxPoint x="989.5999999999999" y="1545" as="targetPoint"/>
                    </mxGeometry>
                </mxCell>
                <mxCell id="186" value="" style="endArrow=none;html=1;rounded=0;startSize=1;endSize=1;strokeColor=#000000;strokeWidth=7;jumpStyle=none;jumpSize=6;exitX=0;exitY=1;exitDx=0;exitDy=0;entryX=1;entryY=0;entryDx=0;entryDy=0;" parent="1" source="184" target="184" edge="1">
                    <mxGeometry width="50" height="50" relative="1" as="geometry">
                        <mxPoint x="889.8512626584743" y="1595.2512626584744" as="sourcePoint"/>
                        <mxPoint x="939.3487373415255" y="1644.7487373415256" as="targetPoint"/>
                    </mxGeometry>
                </mxCell>
                <mxCell id="187" value="" style="ellipse;whiteSpace=wrap;html=1;aspect=fixed;fillColor=#67AB9F;strokeWidth=3;strokeColor=#000000;" parent="1" vertex="1">
                    <mxGeometry x="869.5999999999999" y="1705" width="70" height="70" as="geometry"/>
                </mxCell>
                <mxCell id="188" value="" style="endArrow=none;html=1;rounded=0;startSize=1;endSize=1;strokeColor=#000000;strokeWidth=7;jumpStyle=arc;jumpSize=6;exitX=0;exitY=0;exitDx=0;exitDy=0;entryX=1;entryY=1;entryDx=0;entryDy=0;" parent="1" source="187" target="187" edge="1">
                    <mxGeometry width="50" height="50" relative="1" as="geometry">
                        <mxPoint x="939.5999999999999" y="1725" as="sourcePoint"/>
                        <mxPoint x="989.5999999999999" y="1675" as="targetPoint"/>
                    </mxGeometry>
                </mxCell>
                <mxCell id="189" value="" style="endArrow=none;html=1;rounded=0;startSize=1;endSize=1;strokeColor=#000000;strokeWidth=7;jumpStyle=none;jumpSize=6;exitX=0;exitY=1;exitDx=0;exitDy=0;entryX=1;entryY=0;entryDx=0;entryDy=0;" parent="1" source="187" target="187" edge="1">
                    <mxGeometry width="50" height="50" relative="1" as="geometry">
                        <mxPoint x="889.8512626584743" y="1725.2512626584744" as="sourcePoint"/>
                        <mxPoint x="939.3487373415255" y="1774.7487373415256" as="targetPoint"/>
                    </mxGeometry>
                </mxCell>
                <mxCell id="190" value="" style="ellipse;whiteSpace=wrap;html=1;aspect=fixed;fillColor=#67AB9F;strokeWidth=3;strokeColor=#000000;" parent="1" vertex="1">
                    <mxGeometry x="869.5999999999999" y="1825" width="70" height="70" as="geometry"/>
                </mxCell>
                <mxCell id="191" value="" style="endArrow=none;html=1;rounded=0;startSize=1;endSize=1;strokeColor=#000000;strokeWidth=7;jumpStyle=arc;jumpSize=6;exitX=0;exitY=0;exitDx=0;exitDy=0;entryX=1;entryY=1;entryDx=0;entryDy=0;" parent="1" source="190" target="190" edge="1">
                    <mxGeometry width="50" height="50" relative="1" as="geometry">
                        <mxPoint x="939.5999999999999" y="1845" as="sourcePoint"/>
                        <mxPoint x="989.5999999999999" y="1795" as="targetPoint"/>
                    </mxGeometry>
                </mxCell>
                <mxCell id="192" value="" style="endArrow=none;html=1;rounded=0;startSize=1;endSize=1;strokeColor=#000000;strokeWidth=7;jumpStyle=none;jumpSize=6;exitX=0;exitY=1;exitDx=0;exitDy=0;entryX=1;entryY=0;entryDx=0;entryDy=0;" parent="1" source="190" target="190" edge="1">
                    <mxGeometry width="50" height="50" relative="1" as="geometry">
                        <mxPoint x="889.8512626584743" y="1845.2512626584744" as="sourcePoint"/>
                        <mxPoint x="939.3487373415255" y="1894.7487373415256" as="targetPoint"/>
                    </mxGeometry>
                </mxCell>
                <mxCell id="193" value="" style="ellipse;whiteSpace=wrap;html=1;aspect=fixed;fillColor=#67AB9F;strokeWidth=3;strokeColor=#000000;" parent="1" vertex="1">
                    <mxGeometry x="1066.6" y="1205" width="70" height="70" as="geometry"/>
                </mxCell>
                <mxCell id="194" value="" style="endArrow=none;html=1;rounded=0;startSize=1;endSize=1;strokeColor=#000000;strokeWidth=7;jumpStyle=arc;jumpSize=6;exitX=0;exitY=0;exitDx=0;exitDy=0;entryX=1;entryY=1;entryDx=0;entryDy=0;" parent="1" source="193" target="193" edge="1">
                    <mxGeometry width="50" height="50" relative="1" as="geometry">
                        <mxPoint x="1136.6" y="1225" as="sourcePoint"/>
                        <mxPoint x="1186.6" y="1175" as="targetPoint"/>
                    </mxGeometry>
                </mxCell>
                <mxCell id="195" value="" style="endArrow=none;html=1;rounded=0;startSize=1;endSize=1;strokeColor=#000000;strokeWidth=7;jumpStyle=none;jumpSize=6;exitX=0;exitY=1;exitDx=0;exitDy=0;entryX=1;entryY=0;entryDx=0;entryDy=0;" parent="1" source="193" target="193" edge="1">
                    <mxGeometry width="50" height="50" relative="1" as="geometry">
                        <mxPoint x="1086.8512626584743" y="1225.2512626584744" as="sourcePoint"/>
                        <mxPoint x="1136.3487373415255" y="1274.7487373415252" as="targetPoint"/>
                    </mxGeometry>
                </mxCell>
                <mxCell id="196" value="" style="ellipse;whiteSpace=wrap;html=1;aspect=fixed;fillColor=#67AB9F;strokeWidth=3;strokeColor=#000000;" parent="1" vertex="1">
                    <mxGeometry x="1066.6" y="1335" width="70" height="70" as="geometry"/>
                </mxCell>
                <mxCell id="197" value="" style="endArrow=none;html=1;rounded=0;startSize=1;endSize=1;strokeColor=#000000;strokeWidth=7;jumpStyle=arc;jumpSize=6;exitX=0;exitY=0;exitDx=0;exitDy=0;entryX=1;entryY=1;entryDx=0;entryDy=0;" parent="1" source="196" target="196" edge="1">
                    <mxGeometry width="50" height="50" relative="1" as="geometry">
                        <mxPoint x="1136.6" y="1355" as="sourcePoint"/>
                        <mxPoint x="1186.6" y="1305" as="targetPoint"/>
                    </mxGeometry>
                </mxCell>
                <mxCell id="198" value="" style="endArrow=none;html=1;rounded=0;startSize=1;endSize=1;strokeColor=#000000;strokeWidth=7;jumpStyle=none;jumpSize=6;exitX=0;exitY=1;exitDx=0;exitDy=0;entryX=1;entryY=0;entryDx=0;entryDy=0;" parent="1" source="196" target="196" edge="1">
                    <mxGeometry width="50" height="50" relative="1" as="geometry">
                        <mxPoint x="1086.8512626584743" y="1355.2512626584744" as="sourcePoint"/>
                        <mxPoint x="1136.3487373415255" y="1404.7487373415256" as="targetPoint"/>
                    </mxGeometry>
                </mxCell>
                <mxCell id="199" value="" style="ellipse;whiteSpace=wrap;html=1;aspect=fixed;fillColor=#67AB9F;strokeWidth=3;strokeColor=#000000;" parent="1" vertex="1">
                    <mxGeometry x="1066.6" y="1455" width="70" height="70" as="geometry"/>
                </mxCell>
                <mxCell id="200" value="" style="endArrow=none;html=1;rounded=0;startSize=1;endSize=1;strokeColor=#000000;strokeWidth=7;jumpStyle=arc;jumpSize=6;exitX=0;exitY=0;exitDx=0;exitDy=0;entryX=1;entryY=1;entryDx=0;entryDy=0;" parent="1" source="199" target="199" edge="1">
                    <mxGeometry width="50" height="50" relative="1" as="geometry">
                        <mxPoint x="1136.6" y="1475" as="sourcePoint"/>
                        <mxPoint x="1186.6" y="1425" as="targetPoint"/>
                    </mxGeometry>
                </mxCell>
                <mxCell id="201" value="" style="endArrow=none;html=1;rounded=0;startSize=1;endSize=1;strokeColor=#000000;strokeWidth=7;jumpStyle=none;jumpSize=6;exitX=0;exitY=1;exitDx=0;exitDy=0;entryX=1;entryY=0;entryDx=0;entryDy=0;" parent="1" source="199" target="199" edge="1">
                    <mxGeometry width="50" height="50" relative="1" as="geometry">
                        <mxPoint x="1086.8512626584743" y="1475.2512626584744" as="sourcePoint"/>
                        <mxPoint x="1136.3487373415255" y="1524.7487373415256" as="targetPoint"/>
                    </mxGeometry>
                </mxCell>
                <mxCell id="202" value="" style="ellipse;whiteSpace=wrap;html=1;aspect=fixed;fillColor=#67AB9F;strokeWidth=3;strokeColor=#000000;" parent="1" vertex="1">
                    <mxGeometry x="1066.6" y="1575" width="70" height="70" as="geometry"/>
                </mxCell>
                <mxCell id="203" value="" style="endArrow=none;html=1;rounded=0;startSize=1;endSize=1;strokeColor=#000000;strokeWidth=7;jumpStyle=arc;jumpSize=6;exitX=0;exitY=0;exitDx=0;exitDy=0;entryX=1;entryY=1;entryDx=0;entryDy=0;" parent="1" source="202" target="202" edge="1">
                    <mxGeometry width="50" height="50" relative="1" as="geometry">
                        <mxPoint x="1136.6" y="1595" as="sourcePoint"/>
                        <mxPoint x="1186.6" y="1545" as="targetPoint"/>
                    </mxGeometry>
                </mxCell>
                <mxCell id="204" value="" style="endArrow=none;html=1;rounded=0;startSize=1;endSize=1;strokeColor=#000000;strokeWidth=7;jumpStyle=none;jumpSize=6;exitX=0;exitY=1;exitDx=0;exitDy=0;entryX=1;entryY=0;entryDx=0;entryDy=0;" parent="1" source="202" target="202" edge="1">
                    <mxGeometry width="50" height="50" relative="1" as="geometry">
                        <mxPoint x="1086.8512626584743" y="1595.2512626584744" as="sourcePoint"/>
                        <mxPoint x="1136.3487373415255" y="1644.7487373415256" as="targetPoint"/>
                    </mxGeometry>
                </mxCell>
                <mxCell id="205" value="" style="ellipse;whiteSpace=wrap;html=1;aspect=fixed;fillColor=#67AB9F;strokeWidth=3;strokeColor=#000000;" parent="1" vertex="1">
                    <mxGeometry x="1066.6" y="1705" width="70" height="70" as="geometry"/>
                </mxCell>
                <mxCell id="206" value="" style="endArrow=none;html=1;rounded=0;startSize=1;endSize=1;strokeColor=#000000;strokeWidth=7;jumpStyle=arc;jumpSize=6;exitX=0;exitY=0;exitDx=0;exitDy=0;entryX=1;entryY=1;entryDx=0;entryDy=0;" parent="1" source="205" target="205" edge="1">
                    <mxGeometry width="50" height="50" relative="1" as="geometry">
                        <mxPoint x="1136.6" y="1725" as="sourcePoint"/>
                        <mxPoint x="1186.6" y="1675" as="targetPoint"/>
                    </mxGeometry>
                </mxCell>
                <mxCell id="207" value="" style="endArrow=none;html=1;rounded=0;startSize=1;endSize=1;strokeColor=#000000;strokeWidth=7;jumpStyle=none;jumpSize=6;exitX=0;exitY=1;exitDx=0;exitDy=0;entryX=1;entryY=0;entryDx=0;entryDy=0;" parent="1" source="205" target="205" edge="1">
                    <mxGeometry width="50" height="50" relative="1" as="geometry">
                        <mxPoint x="1086.8512626584743" y="1725.2512626584744" as="sourcePoint"/>
                        <mxPoint x="1136.3487373415255" y="1774.7487373415256" as="targetPoint"/>
                    </mxGeometry>
                </mxCell>
                <mxCell id="208" value="" style="ellipse;whiteSpace=wrap;html=1;aspect=fixed;fillColor=#67AB9F;strokeWidth=3;strokeColor=#000000;" parent="1" vertex="1">
                    <mxGeometry x="1066.6" y="1825" width="70" height="70" as="geometry"/>
                </mxCell>
                <mxCell id="209" value="" style="endArrow=none;html=1;rounded=0;startSize=1;endSize=1;strokeColor=#000000;strokeWidth=7;jumpStyle=arc;jumpSize=6;exitX=0;exitY=0;exitDx=0;exitDy=0;entryX=1;entryY=1;entryDx=0;entryDy=0;" parent="1" source="208" target="208" edge="1">
                    <mxGeometry width="50" height="50" relative="1" as="geometry">
                        <mxPoint x="1136.6" y="1845" as="sourcePoint"/>
                        <mxPoint x="1186.6" y="1795" as="targetPoint"/>
                    </mxGeometry>
                </mxCell>
                <mxCell id="210" value="" style="endArrow=none;html=1;rounded=0;startSize=1;endSize=1;strokeColor=#000000;strokeWidth=7;jumpStyle=none;jumpSize=6;exitX=0;exitY=1;exitDx=0;exitDy=0;entryX=1;entryY=0;entryDx=0;entryDy=0;" parent="1" source="208" target="208" edge="1">
                    <mxGeometry width="50" height="50" relative="1" as="geometry">
                        <mxPoint x="1086.8512626584743" y="1845.2512626584744" as="sourcePoint"/>
                        <mxPoint x="1136.3487373415255" y="1894.7487373415256" as="targetPoint"/>
                    </mxGeometry>
                </mxCell>
                <mxCell id="212" value="" style="rounded=1;whiteSpace=wrap;html=1;fillColor=#e1d5e7;opacity=40;strokeColor=#9673a6;glass=0;strokeWidth=3;rotation=90;" parent="1" vertex="1">
                    <mxGeometry x="1435.98" y="1530.58" width="1150" height="205" as="geometry"/>
                </mxCell>
                <mxCell id="213" style="edgeStyle=orthogonalEdgeStyle;rounded=0;jumpStyle=none;jumpSize=6;orthogonalLoop=1;jettySize=auto;html=1;fontSize=50;fontColor=#000000;startArrow=classic;startFill=1;endArrow=classic;endFill=1;startSize=1;endSize=1;strokeColor=#000000;strokeWidth=7;" parent="1" edge="1">
                    <mxGeometry relative="1" as="geometry">
                        <mxPoint x="1730.98" y="1249.98" as="targetPoint"/>
                        <mxPoint x="1980.98" y="1249.58" as="sourcePoint"/>
                        <Array as="points">
                            <mxPoint x="1820.98" y="1249.58"/>
                            <mxPoint x="1820.98" y="1249.58"/>
                        </Array>
                    </mxGeometry>
                </mxCell>
                <mxCell id="214" value="F0 - F3" style="whiteSpace=wrap;html=1;aspect=fixed;fillColor=#e1d5e7;strokeColor=#9673a6;strokeWidth=3;rotation=90;fontSize=17;horizontal=0;fontStyle=1" parent="1" vertex="1">
                    <mxGeometry x="1990.98" y="1205" width="80" height="80" as="geometry"/>
                </mxCell>
                <mxCell id="216" value="F4-F7" style="whiteSpace=wrap;html=1;aspect=fixed;fillColor=#e1d5e7;strokeColor=#9673a6;strokeWidth=3;rotation=90;fontSize=17;horizontal=0;fontStyle=1" parent="1" vertex="1">
                    <mxGeometry x="1989.48" y="1331.5" width="77" height="77" as="geometry"/>
                </mxCell>
                <mxCell id="217" value="OFmap Memory" style="text;html=1;strokeColor=none;fillColor=none;align=center;verticalAlign=middle;whiteSpace=wrap;rounded=0;glass=0;fontSize=45;" parent="1" vertex="1">
                    <mxGeometry x="1910.98" y="1985.58" width="220" height="190" as="geometry"/>
                </mxCell>
                <mxCell id="218" value="Weight&amp;nbsp;&lt;br style=&quot;font-size: 41px;&quot;&gt;Multipication" style="text;html=1;strokeColor=none;fillColor=none;align=left;verticalAlign=middle;whiteSpace=wrap;rounded=0;glass=0;fontSize=41;" parent="1" vertex="1">
                    <mxGeometry x="-235" y="2055" width="199.99" height="130" as="geometry"/>
                </mxCell>
                <mxCell id="220" value="F8-F11" style="whiteSpace=wrap;html=1;aspect=fixed;fillColor=#e1d5e7;strokeColor=#9673a6;strokeWidth=3;rotation=90;fontSize=17;horizontal=0;fontStyle=1" parent="1" vertex="1">
                    <mxGeometry x="1989.48" y="1455" width="80" height="80" as="geometry"/>
                </mxCell>
                <mxCell id="222" value="F12-F15" style="whiteSpace=wrap;html=1;aspect=fixed;fillColor=#e1d5e7;strokeColor=#9673a6;strokeWidth=3;rotation=90;fontSize=17;horizontal=0;fontStyle=1" parent="1" vertex="1">
                    <mxGeometry x="1990.98" y="1584" width="77" height="77" as="geometry"/>
                </mxCell>
                <mxCell id="224" value="F16-F19" style="whiteSpace=wrap;html=1;aspect=fixed;fillColor=#e1d5e7;strokeColor=#9673a6;strokeWidth=3;rotation=90;fontSize=17;horizontal=0;fontStyle=1" parent="1" vertex="1">
                    <mxGeometry x="1992.48" y="1705" width="77" height="77" as="geometry"/>
                </mxCell>
                <mxCell id="226" value="F20-F23" style="whiteSpace=wrap;html=1;aspect=fixed;fillColor=#e1d5e7;strokeColor=#9673a6;strokeWidth=3;rotation=90;fontSize=17;horizontal=0;fontStyle=1" parent="1" vertex="1">
                    <mxGeometry x="1992.48" y="1821.5" width="77" height="77" as="geometry"/>
                </mxCell>
                <mxCell id="227" value="&amp;nbsp;Tree/Systolic Reduction" style="text;html=1;strokeColor=none;fillColor=none;align=left;verticalAlign=middle;whiteSpace=wrap;rounded=0;glass=0;fontSize=44;" parent="1" vertex="1">
                    <mxGeometry x="-464.02" y="1768.5" width="260" height="130" as="geometry"/>
                </mxCell>
                <mxCell id="228" value="" style="shape=curlyBracket;whiteSpace=wrap;html=1;rounded=1;glass=0;fontSize=50;fontColor=#000000;strokeColor=#000000;strokeWidth=4;fillColor=#0000FF;" parent="1" vertex="1">
                    <mxGeometry x="-85" y="1215" width="20" height="690" as="geometry"/>
                </mxCell>
                <mxCell id="229" value="Filter Concurrency" style="text;html=1;strokeColor=none;fillColor=none;align=center;verticalAlign=middle;whiteSpace=wrap;rounded=0;glass=0;fontSize=50;fontColor=#000000;horizontal=0;" parent="1" vertex="1">
                    <mxGeometry x="-185" y="1542.5" width="60" height="30" as="geometry"/>
                </mxCell>
                <mxCell id="230" value="" style="shape=curlyBracket;whiteSpace=wrap;html=1;rounded=1;glass=0;fontSize=50;fontColor=#000000;strokeColor=#000000;strokeWidth=4;fillColor=#0000FF;rotation=-90;" parent="1" vertex="1">
                    <mxGeometry x="569" y="1440" width="20" height="1140" as="geometry"/>
                </mxCell>
                <mxCell id="231" value="Channel Concurrency" style="text;html=1;strokeColor=none;fillColor=none;align=center;verticalAlign=middle;whiteSpace=wrap;rounded=0;glass=0;fontSize=50;fontColor=#000000;horizontal=0;rotation=90;" parent="1" vertex="1">
                    <mxGeometry x="550" y="2075" width="60" height="30" as="geometry"/>
                </mxCell>
                <mxCell id="232" value="" style="endArrow=classic;html=1;rounded=0;fontSize=30;fontColor=#990000;strokeWidth=5;endFill=1;" parent="1" edge="1">
                    <mxGeometry width="50" height="50" relative="1" as="geometry">
                        <mxPoint x="-185.01" y="1135" as="sourcePoint"/>
                        <mxPoint x="-35.01000000000002" y="1135" as="targetPoint"/>
                    </mxGeometry>
                </mxCell>
                <mxCell id="233" value="" style="endArrow=classic;html=1;rounded=0;fontSize=30;fontColor=#990000;strokeWidth=5;endFill=1;" parent="1" edge="1">
                    <mxGeometry width="50" height="50" relative="1" as="geometry">
                        <mxPoint x="-185" y="1135" as="sourcePoint"/>
                        <mxPoint x="-185" y="1195" as="targetPoint"/>
                    </mxGeometry>
                </mxCell>
                <mxCell id="234" value="Horizontal Axis" style="text;html=1;strokeColor=none;fillColor=none;align=center;verticalAlign=middle;whiteSpace=wrap;rounded=0;fontSize=30;fontColor=#000000;" parent="1" vertex="1">
                    <mxGeometry x="-205" y="1075" width="180" height="40" as="geometry"/>
                </mxCell>
                <mxCell id="235" value="Vertical Axis" style="text;html=1;strokeColor=none;fillColor=none;align=center;verticalAlign=middle;whiteSpace=wrap;rounded=0;fontSize=30;fontColor=#000000;" parent="1" vertex="1">
                    <mxGeometry x="-325" y="1135" width="150" height="40" as="geometry"/>
                </mxCell>
                <mxCell id="238" value="" style="ellipse;whiteSpace=wrap;html=1;aspect=fixed;fillColor=#67AB9F;strokeWidth=3;strokeColor=#000000;" parent="1" vertex="1">
                    <mxGeometry x="1260.98" y="1205" width="70" height="70" as="geometry"/>
                </mxCell>
                <mxCell id="239" value="" style="endArrow=none;html=1;rounded=0;startSize=1;endSize=1;strokeColor=#000000;strokeWidth=7;jumpStyle=arc;jumpSize=6;exitX=0;exitY=0;exitDx=0;exitDy=0;entryX=1;entryY=1;entryDx=0;entryDy=0;" parent="1" source="238" target="238" edge="1">
                    <mxGeometry width="50" height="50" relative="1" as="geometry">
                        <mxPoint x="1330.98" y="1225" as="sourcePoint"/>
                        <mxPoint x="1380.98" y="1175" as="targetPoint"/>
                    </mxGeometry>
                </mxCell>
                <mxCell id="240" value="" style="endArrow=none;html=1;rounded=0;startSize=1;endSize=1;strokeColor=#000000;strokeWidth=7;jumpStyle=none;jumpSize=6;exitX=0;exitY=1;exitDx=0;exitDy=0;entryX=1;entryY=0;entryDx=0;entryDy=0;" parent="1" source="238" target="238" edge="1">
                    <mxGeometry width="50" height="50" relative="1" as="geometry">
                        <mxPoint x="1281.2312626584744" y="1225.2512626584744" as="sourcePoint"/>
                        <mxPoint x="1330.7287373415256" y="1274.7487373415252" as="targetPoint"/>
                    </mxGeometry>
                </mxCell>
                <mxCell id="241" value="" style="ellipse;whiteSpace=wrap;html=1;aspect=fixed;fillColor=#67AB9F;strokeWidth=3;strokeColor=#000000;" parent="1" vertex="1">
                    <mxGeometry x="1260.98" y="1335" width="70" height="70" as="geometry"/>
                </mxCell>
                <mxCell id="242" value="" style="endArrow=none;html=1;rounded=0;startSize=1;endSize=1;strokeColor=#000000;strokeWidth=7;jumpStyle=arc;jumpSize=6;exitX=0;exitY=0;exitDx=0;exitDy=0;entryX=1;entryY=1;entryDx=0;entryDy=0;" parent="1" source="241" target="241" edge="1">
                    <mxGeometry width="50" height="50" relative="1" as="geometry">
                        <mxPoint x="1330.98" y="1355" as="sourcePoint"/>
                        <mxPoint x="1380.98" y="1305" as="targetPoint"/>
                    </mxGeometry>
                </mxCell>
                <mxCell id="243" value="" style="endArrow=none;html=1;rounded=0;startSize=1;endSize=1;strokeColor=#000000;strokeWidth=7;jumpStyle=none;jumpSize=6;exitX=0;exitY=1;exitDx=0;exitDy=0;entryX=1;entryY=0;entryDx=0;entryDy=0;" parent="1" source="241" target="241" edge="1">
                    <mxGeometry width="50" height="50" relative="1" as="geometry">
                        <mxPoint x="1281.2312626584744" y="1355.2512626584744" as="sourcePoint"/>
                        <mxPoint x="1330.7287373415256" y="1404.7487373415252" as="targetPoint"/>
                    </mxGeometry>
                </mxCell>
                <mxCell id="244" value="" style="ellipse;whiteSpace=wrap;html=1;aspect=fixed;fillColor=#67AB9F;strokeWidth=3;strokeColor=#000000;" parent="1" vertex="1">
                    <mxGeometry x="1260.98" y="1455" width="70" height="70" as="geometry"/>
                </mxCell>
                <mxCell id="245" value="" style="endArrow=none;html=1;rounded=0;startSize=1;endSize=1;strokeColor=#000000;strokeWidth=7;jumpStyle=arc;jumpSize=6;exitX=0;exitY=0;exitDx=0;exitDy=0;entryX=1;entryY=1;entryDx=0;entryDy=0;" parent="1" source="244" target="244" edge="1">
                    <mxGeometry width="50" height="50" relative="1" as="geometry">
                        <mxPoint x="1330.98" y="1475" as="sourcePoint"/>
                        <mxPoint x="1380.98" y="1425" as="targetPoint"/>
                    </mxGeometry>
                </mxCell>
                <mxCell id="246" value="" style="endArrow=none;html=1;rounded=0;startSize=1;endSize=1;strokeColor=#000000;strokeWidth=7;jumpStyle=none;jumpSize=6;exitX=0;exitY=1;exitDx=0;exitDy=0;entryX=1;entryY=0;entryDx=0;entryDy=0;" parent="1" source="244" target="244" edge="1">
                    <mxGeometry width="50" height="50" relative="1" as="geometry">
                        <mxPoint x="1281.2312626584744" y="1475.2512626584744" as="sourcePoint"/>
                        <mxPoint x="1330.7287373415256" y="1524.7487373415252" as="targetPoint"/>
                    </mxGeometry>
                </mxCell>
                <mxCell id="247" value="" style="ellipse;whiteSpace=wrap;html=1;aspect=fixed;fillColor=#67AB9F;strokeWidth=3;strokeColor=#000000;" parent="1" vertex="1">
                    <mxGeometry x="1260.98" y="1575" width="70" height="70" as="geometry"/>
                </mxCell>
                <mxCell id="248" value="" style="endArrow=none;html=1;rounded=0;startSize=1;endSize=1;strokeColor=#000000;strokeWidth=7;jumpStyle=arc;jumpSize=6;exitX=0;exitY=0;exitDx=0;exitDy=0;entryX=1;entryY=1;entryDx=0;entryDy=0;" parent="1" source="247" target="247" edge="1">
                    <mxGeometry width="50" height="50" relative="1" as="geometry">
                        <mxPoint x="1330.98" y="1595" as="sourcePoint"/>
                        <mxPoint x="1380.98" y="1545" as="targetPoint"/>
                    </mxGeometry>
                </mxCell>
                <mxCell id="249" value="" style="endArrow=none;html=1;rounded=0;startSize=1;endSize=1;strokeColor=#000000;strokeWidth=7;jumpStyle=none;jumpSize=6;exitX=0;exitY=1;exitDx=0;exitDy=0;entryX=1;entryY=0;entryDx=0;entryDy=0;" parent="1" source="247" target="247" edge="1">
                    <mxGeometry width="50" height="50" relative="1" as="geometry">
                        <mxPoint x="1281.2312626584744" y="1595.2512626584744" as="sourcePoint"/>
                        <mxPoint x="1330.7287373415256" y="1644.7487373415252" as="targetPoint"/>
                    </mxGeometry>
                </mxCell>
                <mxCell id="250" value="" style="ellipse;whiteSpace=wrap;html=1;aspect=fixed;fillColor=#67AB9F;strokeWidth=3;strokeColor=#000000;" parent="1" vertex="1">
                    <mxGeometry x="1260.98" y="1705" width="70" height="70" as="geometry"/>
                </mxCell>
                <mxCell id="251" value="" style="endArrow=none;html=1;rounded=0;startSize=1;endSize=1;strokeColor=#000000;strokeWidth=7;jumpStyle=arc;jumpSize=6;exitX=0;exitY=0;exitDx=0;exitDy=0;entryX=1;entryY=1;entryDx=0;entryDy=0;" parent="1" source="250" target="250" edge="1">
                    <mxGeometry width="50" height="50" relative="1" as="geometry">
                        <mxPoint x="1330.98" y="1725" as="sourcePoint"/>
                        <mxPoint x="1380.98" y="1675" as="targetPoint"/>
                    </mxGeometry>
                </mxCell>
                <mxCell id="252" value="" style="endArrow=none;html=1;rounded=0;startSize=1;endSize=1;strokeColor=#000000;strokeWidth=7;jumpStyle=none;jumpSize=6;exitX=0;exitY=1;exitDx=0;exitDy=0;entryX=1;entryY=0;entryDx=0;entryDy=0;" parent="1" source="250" target="250" edge="1">
                    <mxGeometry width="50" height="50" relative="1" as="geometry">
                        <mxPoint x="1281.2312626584744" y="1725.2512626584744" as="sourcePoint"/>
                        <mxPoint x="1330.7287373415256" y="1774.7487373415252" as="targetPoint"/>
                    </mxGeometry>
                </mxCell>
                <mxCell id="253" value="" style="ellipse;whiteSpace=wrap;html=1;aspect=fixed;fillColor=#67AB9F;strokeWidth=3;strokeColor=#000000;" parent="1" vertex="1">
                    <mxGeometry x="1260.98" y="1825" width="70" height="70" as="geometry"/>
                </mxCell>
                <mxCell id="254" value="" style="endArrow=none;html=1;rounded=0;startSize=1;endSize=1;strokeColor=#000000;strokeWidth=7;jumpStyle=arc;jumpSize=6;exitX=0;exitY=0;exitDx=0;exitDy=0;entryX=1;entryY=1;entryDx=0;entryDy=0;" parent="1" source="253" target="253" edge="1">
                    <mxGeometry width="50" height="50" relative="1" as="geometry">
                        <mxPoint x="1330.98" y="1845" as="sourcePoint"/>
                        <mxPoint x="1380.98" y="1795" as="targetPoint"/>
                    </mxGeometry>
                </mxCell>
                <mxCell id="255" value="" style="endArrow=none;html=1;rounded=0;startSize=1;endSize=1;strokeColor=#000000;strokeWidth=7;jumpStyle=none;jumpSize=6;exitX=0;exitY=1;exitDx=0;exitDy=0;entryX=1;entryY=0;entryDx=0;entryDy=0;" parent="1" source="253" target="253" edge="1">
                    <mxGeometry width="50" height="50" relative="1" as="geometry">
                        <mxPoint x="1281.2312626584744" y="1845.2512626584744" as="sourcePoint"/>
                        <mxPoint x="1330.7287373415256" y="1894.7487373415252" as="targetPoint"/>
                    </mxGeometry>
                </mxCell>
                <mxCell id="256" value="" style="ellipse;whiteSpace=wrap;html=1;aspect=fixed;fillColor=#67AB9F;strokeWidth=3;strokeColor=#000000;" parent="1" vertex="1">
                    <mxGeometry x="1453.58" y="1205" width="70" height="70" as="geometry"/>
                </mxCell>
                <mxCell id="257" value="" style="endArrow=none;html=1;rounded=0;startSize=1;endSize=1;strokeColor=#000000;strokeWidth=7;jumpStyle=arc;jumpSize=6;exitX=0;exitY=0;exitDx=0;exitDy=0;entryX=1;entryY=1;entryDx=0;entryDy=0;" parent="1" source="256" target="256" edge="1">
                    <mxGeometry width="50" height="50" relative="1" as="geometry">
                        <mxPoint x="1523.58" y="1225" as="sourcePoint"/>
                        <mxPoint x="1573.58" y="1175" as="targetPoint"/>
                    </mxGeometry>
                </mxCell>
                <mxCell id="258" value="" style="endArrow=none;html=1;rounded=0;startSize=1;endSize=1;strokeColor=#000000;strokeWidth=7;jumpStyle=none;jumpSize=6;exitX=0;exitY=1;exitDx=0;exitDy=0;entryX=1;entryY=0;entryDx=0;entryDy=0;" parent="1" source="256" target="256" edge="1">
                    <mxGeometry width="50" height="50" relative="1" as="geometry">
                        <mxPoint x="1473.8312626584743" y="1225.2512626584744" as="sourcePoint"/>
                        <mxPoint x="1523.3287373415255" y="1274.7487373415252" as="targetPoint"/>
                    </mxGeometry>
                </mxCell>
                <mxCell id="259" value="" style="ellipse;whiteSpace=wrap;html=1;aspect=fixed;fillColor=#67AB9F;strokeWidth=3;strokeColor=#000000;" parent="1" vertex="1">
                    <mxGeometry x="1453.58" y="1335" width="70" height="70" as="geometry"/>
                </mxCell>
                <mxCell id="260" value="" style="endArrow=none;html=1;rounded=0;startSize=1;endSize=1;strokeColor=#000000;strokeWidth=7;jumpStyle=arc;jumpSize=6;exitX=0;exitY=0;exitDx=0;exitDy=0;entryX=1;entryY=1;entryDx=0;entryDy=0;" parent="1" source="259" target="259" edge="1">
                    <mxGeometry width="50" height="50" relative="1" as="geometry">
                        <mxPoint x="1523.58" y="1355" as="sourcePoint"/>
                        <mxPoint x="1573.58" y="1305" as="targetPoint"/>
                    </mxGeometry>
                </mxCell>
                <mxCell id="261" value="" style="endArrow=none;html=1;rounded=0;startSize=1;endSize=1;strokeColor=#000000;strokeWidth=7;jumpStyle=none;jumpSize=6;exitX=0;exitY=1;exitDx=0;exitDy=0;entryX=1;entryY=0;entryDx=0;entryDy=0;" parent="1" source="259" target="259" edge="1">
                    <mxGeometry width="50" height="50" relative="1" as="geometry">
                        <mxPoint x="1473.8312626584743" y="1355.2512626584744" as="sourcePoint"/>
                        <mxPoint x="1523.3287373415255" y="1404.7487373415252" as="targetPoint"/>
                    </mxGeometry>
                </mxCell>
                <mxCell id="262" value="" style="ellipse;whiteSpace=wrap;html=1;aspect=fixed;fillColor=#67AB9F;strokeWidth=3;strokeColor=#000000;" parent="1" vertex="1">
                    <mxGeometry x="1453.58" y="1455" width="70" height="70" as="geometry"/>
                </mxCell>
                <mxCell id="263" value="" style="endArrow=none;html=1;rounded=0;startSize=1;endSize=1;strokeColor=#000000;strokeWidth=7;jumpStyle=arc;jumpSize=6;exitX=0;exitY=0;exitDx=0;exitDy=0;entryX=1;entryY=1;entryDx=0;entryDy=0;" parent="1" source="262" target="262" edge="1">
                    <mxGeometry width="50" height="50" relative="1" as="geometry">
                        <mxPoint x="1523.58" y="1475" as="sourcePoint"/>
                        <mxPoint x="1573.58" y="1425" as="targetPoint"/>
                    </mxGeometry>
                </mxCell>
                <mxCell id="264" value="" style="endArrow=none;html=1;rounded=0;startSize=1;endSize=1;strokeColor=#000000;strokeWidth=7;jumpStyle=none;jumpSize=6;exitX=0;exitY=1;exitDx=0;exitDy=0;entryX=1;entryY=0;entryDx=0;entryDy=0;" parent="1" source="262" target="262" edge="1">
                    <mxGeometry width="50" height="50" relative="1" as="geometry">
                        <mxPoint x="1473.8312626584743" y="1475.2512626584744" as="sourcePoint"/>
                        <mxPoint x="1523.3287373415255" y="1524.7487373415252" as="targetPoint"/>
                    </mxGeometry>
                </mxCell>
                <mxCell id="265" value="" style="ellipse;whiteSpace=wrap;html=1;aspect=fixed;fillColor=#67AB9F;strokeWidth=3;strokeColor=#000000;" parent="1" vertex="1">
                    <mxGeometry x="1453.58" y="1575" width="70" height="70" as="geometry"/>
                </mxCell>
                <mxCell id="266" value="" style="endArrow=none;html=1;rounded=0;startSize=1;endSize=1;strokeColor=#000000;strokeWidth=7;jumpStyle=arc;jumpSize=6;exitX=0;exitY=0;exitDx=0;exitDy=0;entryX=1;entryY=1;entryDx=0;entryDy=0;" parent="1" source="265" target="265" edge="1">
                    <mxGeometry width="50" height="50" relative="1" as="geometry">
                        <mxPoint x="1523.58" y="1595" as="sourcePoint"/>
                        <mxPoint x="1573.58" y="1545" as="targetPoint"/>
                    </mxGeometry>
                </mxCell>
                <mxCell id="267" value="" style="endArrow=none;html=1;rounded=0;startSize=1;endSize=1;strokeColor=#000000;strokeWidth=7;jumpStyle=none;jumpSize=6;exitX=0;exitY=1;exitDx=0;exitDy=0;entryX=1;entryY=0;entryDx=0;entryDy=0;" parent="1" source="265" target="265" edge="1">
                    <mxGeometry width="50" height="50" relative="1" as="geometry">
                        <mxPoint x="1473.8312626584743" y="1595.2512626584744" as="sourcePoint"/>
                        <mxPoint x="1523.3287373415255" y="1644.7487373415252" as="targetPoint"/>
                    </mxGeometry>
                </mxCell>
                <mxCell id="268" value="" style="ellipse;whiteSpace=wrap;html=1;aspect=fixed;fillColor=#67AB9F;strokeWidth=3;strokeColor=#000000;" parent="1" vertex="1">
                    <mxGeometry x="1453.58" y="1705" width="70" height="70" as="geometry"/>
                </mxCell>
                <mxCell id="269" value="" style="endArrow=none;html=1;rounded=0;startSize=1;endSize=1;strokeColor=#000000;strokeWidth=7;jumpStyle=arc;jumpSize=6;exitX=0;exitY=0;exitDx=0;exitDy=0;entryX=1;entryY=1;entryDx=0;entryDy=0;" parent="1" source="268" target="268" edge="1">
                    <mxGeometry width="50" height="50" relative="1" as="geometry">
                        <mxPoint x="1523.58" y="1725" as="sourcePoint"/>
                        <mxPoint x="1573.58" y="1675" as="targetPoint"/>
                    </mxGeometry>
                </mxCell>
                <mxCell id="270" value="" style="endArrow=none;html=1;rounded=0;startSize=1;endSize=1;strokeColor=#000000;strokeWidth=7;jumpStyle=none;jumpSize=6;exitX=0;exitY=1;exitDx=0;exitDy=0;entryX=1;entryY=0;entryDx=0;entryDy=0;" parent="1" source="268" target="268" edge="1">
                    <mxGeometry width="50" height="50" relative="1" as="geometry">
                        <mxPoint x="1473.8312626584743" y="1725.2512626584744" as="sourcePoint"/>
                        <mxPoint x="1523.3287373415255" y="1774.7487373415252" as="targetPoint"/>
                    </mxGeometry>
                </mxCell>
                <mxCell id="271" value="" style="ellipse;whiteSpace=wrap;html=1;aspect=fixed;fillColor=#67AB9F;strokeWidth=3;strokeColor=#000000;" parent="1" vertex="1">
                    <mxGeometry x="1453.58" y="1825" width="70" height="70" as="geometry"/>
                </mxCell>
                <mxCell id="272" value="" style="endArrow=none;html=1;rounded=0;startSize=1;endSize=1;strokeColor=#000000;strokeWidth=7;jumpStyle=arc;jumpSize=6;exitX=0;exitY=0;exitDx=0;exitDy=0;entryX=1;entryY=1;entryDx=0;entryDy=0;" parent="1" source="271" target="271" edge="1">
                    <mxGeometry width="50" height="50" relative="1" as="geometry">
                        <mxPoint x="1523.58" y="1845" as="sourcePoint"/>
                        <mxPoint x="1573.58" y="1795" as="targetPoint"/>
                    </mxGeometry>
                </mxCell>
                <mxCell id="273" value="" style="endArrow=none;html=1;rounded=0;startSize=1;endSize=1;strokeColor=#000000;strokeWidth=7;jumpStyle=none;jumpSize=6;exitX=0;exitY=1;exitDx=0;exitDy=0;entryX=1;entryY=0;entryDx=0;entryDy=0;" parent="1" source="271" target="271" edge="1">
                    <mxGeometry width="50" height="50" relative="1" as="geometry">
                        <mxPoint x="1473.8312626584743" y="1845.2512626584744" as="sourcePoint"/>
                        <mxPoint x="1523.3287373415255" y="1894.7487373415252" as="targetPoint"/>
                    </mxGeometry>
                </mxCell>
                <mxCell id="274" value="" style="ellipse;whiteSpace=wrap;html=1;aspect=fixed;fillColor=#67AB9F;strokeWidth=3;strokeColor=#000000;" parent="1" vertex="1">
                    <mxGeometry x="1650.58" y="1205" width="70" height="70" as="geometry"/>
                </mxCell>
                <mxCell id="275" value="" style="endArrow=none;html=1;rounded=0;startSize=1;endSize=1;strokeColor=#000000;strokeWidth=7;jumpStyle=arc;jumpSize=6;exitX=0;exitY=0;exitDx=0;exitDy=0;entryX=1;entryY=1;entryDx=0;entryDy=0;" parent="1" source="274" target="274" edge="1">
                    <mxGeometry width="50" height="50" relative="1" as="geometry">
                        <mxPoint x="1720.58" y="1225" as="sourcePoint"/>
                        <mxPoint x="1770.58" y="1175" as="targetPoint"/>
                    </mxGeometry>
                </mxCell>
                <mxCell id="276" value="" style="endArrow=none;html=1;rounded=0;startSize=1;endSize=1;strokeColor=#000000;strokeWidth=7;jumpStyle=none;jumpSize=6;exitX=0;exitY=1;exitDx=0;exitDy=0;entryX=1;entryY=0;entryDx=0;entryDy=0;" parent="1" source="274" target="274" edge="1">
                    <mxGeometry width="50" height="50" relative="1" as="geometry">
                        <mxPoint x="1670.8312626584743" y="1225.2512626584744" as="sourcePoint"/>
                        <mxPoint x="1720.3287373415255" y="1274.7487373415252" as="targetPoint"/>
                    </mxGeometry>
                </mxCell>
                <mxCell id="277" value="" style="ellipse;whiteSpace=wrap;html=1;aspect=fixed;fillColor=#67AB9F;strokeWidth=3;strokeColor=#000000;" parent="1" vertex="1">
                    <mxGeometry x="1650.58" y="1335" width="70" height="70" as="geometry"/>
                </mxCell>
                <mxCell id="278" value="" style="endArrow=none;html=1;rounded=0;startSize=1;endSize=1;strokeColor=#000000;strokeWidth=7;jumpStyle=arc;jumpSize=6;exitX=0;exitY=0;exitDx=0;exitDy=0;entryX=1;entryY=1;entryDx=0;entryDy=0;" parent="1" source="277" target="277" edge="1">
                    <mxGeometry width="50" height="50" relative="1" as="geometry">
                        <mxPoint x="1720.58" y="1355" as="sourcePoint"/>
                        <mxPoint x="1770.58" y="1305" as="targetPoint"/>
                    </mxGeometry>
                </mxCell>
                <mxCell id="279" value="" style="endArrow=none;html=1;rounded=0;startSize=1;endSize=1;strokeColor=#000000;strokeWidth=7;jumpStyle=none;jumpSize=6;exitX=0;exitY=1;exitDx=0;exitDy=0;entryX=1;entryY=0;entryDx=0;entryDy=0;" parent="1" source="277" target="277" edge="1">
                    <mxGeometry width="50" height="50" relative="1" as="geometry">
                        <mxPoint x="1670.8312626584743" y="1355.2512626584744" as="sourcePoint"/>
                        <mxPoint x="1720.3287373415255" y="1404.7487373415252" as="targetPoint"/>
                    </mxGeometry>
                </mxCell>
                <mxCell id="280" value="" style="ellipse;whiteSpace=wrap;html=1;aspect=fixed;fillColor=#67AB9F;strokeWidth=3;strokeColor=#000000;" parent="1" vertex="1">
                    <mxGeometry x="1650.58" y="1455" width="70" height="70" as="geometry"/>
                </mxCell>
                <mxCell id="281" value="" style="endArrow=none;html=1;rounded=0;startSize=1;endSize=1;strokeColor=#000000;strokeWidth=7;jumpStyle=arc;jumpSize=6;exitX=0;exitY=0;exitDx=0;exitDy=0;entryX=1;entryY=1;entryDx=0;entryDy=0;" parent="1" source="280" target="280" edge="1">
                    <mxGeometry width="50" height="50" relative="1" as="geometry">
                        <mxPoint x="1720.58" y="1475" as="sourcePoint"/>
                        <mxPoint x="1770.58" y="1425" as="targetPoint"/>
                    </mxGeometry>
                </mxCell>
                <mxCell id="282" value="" style="endArrow=none;html=1;rounded=0;startSize=1;endSize=1;strokeColor=#000000;strokeWidth=7;jumpStyle=none;jumpSize=6;exitX=0;exitY=1;exitDx=0;exitDy=0;entryX=1;entryY=0;entryDx=0;entryDy=0;" parent="1" source="280" target="280" edge="1">
                    <mxGeometry width="50" height="50" relative="1" as="geometry">
                        <mxPoint x="1670.8312626584743" y="1475.2512626584744" as="sourcePoint"/>
                        <mxPoint x="1720.3287373415255" y="1524.7487373415252" as="targetPoint"/>
                    </mxGeometry>
                </mxCell>
                <mxCell id="283" value="" style="ellipse;whiteSpace=wrap;html=1;aspect=fixed;fillColor=#67AB9F;strokeWidth=3;strokeColor=#000000;" parent="1" vertex="1">
                    <mxGeometry x="1650.58" y="1575" width="70" height="70" as="geometry"/>
                </mxCell>
                <mxCell id="284" value="" style="endArrow=none;html=1;rounded=0;startSize=1;endSize=1;strokeColor=#000000;strokeWidth=7;jumpStyle=arc;jumpSize=6;exitX=0;exitY=0;exitDx=0;exitDy=0;entryX=1;entryY=1;entryDx=0;entryDy=0;" parent="1" source="283" target="283" edge="1">
                    <mxGeometry width="50" height="50" relative="1" as="geometry">
                        <mxPoint x="1720.58" y="1595" as="sourcePoint"/>
                        <mxPoint x="1770.58" y="1545" as="targetPoint"/>
                    </mxGeometry>
                </mxCell>
                <mxCell id="285" value="" style="endArrow=none;html=1;rounded=0;startSize=1;endSize=1;strokeColor=#000000;strokeWidth=7;jumpStyle=none;jumpSize=6;exitX=0;exitY=1;exitDx=0;exitDy=0;entryX=1;entryY=0;entryDx=0;entryDy=0;" parent="1" source="283" target="283" edge="1">
                    <mxGeometry width="50" height="50" relative="1" as="geometry">
                        <mxPoint x="1670.8312626584743" y="1595.2512626584744" as="sourcePoint"/>
                        <mxPoint x="1720.3287373415255" y="1644.7487373415252" as="targetPoint"/>
                    </mxGeometry>
                </mxCell>
                <mxCell id="286" value="" style="ellipse;whiteSpace=wrap;html=1;aspect=fixed;fillColor=#67AB9F;strokeWidth=3;strokeColor=#000000;" parent="1" vertex="1">
                    <mxGeometry x="1650.58" y="1705" width="70" height="70" as="geometry"/>
                </mxCell>
                <mxCell id="287" value="" style="endArrow=none;html=1;rounded=0;startSize=1;endSize=1;strokeColor=#000000;strokeWidth=7;jumpStyle=arc;jumpSize=6;exitX=0;exitY=0;exitDx=0;exitDy=0;entryX=1;entryY=1;entryDx=0;entryDy=0;" parent="1" source="286" target="286" edge="1">
                    <mxGeometry width="50" height="50" relative="1" as="geometry">
                        <mxPoint x="1720.58" y="1725" as="sourcePoint"/>
                        <mxPoint x="1770.58" y="1675" as="targetPoint"/>
                    </mxGeometry>
                </mxCell>
                <mxCell id="288" value="" style="endArrow=none;html=1;rounded=0;startSize=1;endSize=1;strokeColor=#000000;strokeWidth=7;jumpStyle=none;jumpSize=6;exitX=0;exitY=1;exitDx=0;exitDy=0;entryX=1;entryY=0;entryDx=0;entryDy=0;" parent="1" source="286" target="286" edge="1">
                    <mxGeometry width="50" height="50" relative="1" as="geometry">
                        <mxPoint x="1670.8312626584743" y="1725.2512626584744" as="sourcePoint"/>
                        <mxPoint x="1720.3287373415255" y="1774.7487373415252" as="targetPoint"/>
                    </mxGeometry>
                </mxCell>
                <mxCell id="289" value="" style="ellipse;whiteSpace=wrap;html=1;aspect=fixed;fillColor=#67AB9F;strokeWidth=3;strokeColor=#000000;" parent="1" vertex="1">
                    <mxGeometry x="1650.58" y="1825" width="70" height="70" as="geometry"/>
                </mxCell>
                <mxCell id="290" value="" style="endArrow=none;html=1;rounded=0;startSize=1;endSize=1;strokeColor=#000000;strokeWidth=7;jumpStyle=arc;jumpSize=6;exitX=0;exitY=0;exitDx=0;exitDy=0;entryX=1;entryY=1;entryDx=0;entryDy=0;" parent="1" source="289" target="289" edge="1">
                    <mxGeometry width="50" height="50" relative="1" as="geometry">
                        <mxPoint x="1720.58" y="1845" as="sourcePoint"/>
                        <mxPoint x="1770.58" y="1795" as="targetPoint"/>
                    </mxGeometry>
                </mxCell>
                <mxCell id="291" value="" style="endArrow=none;html=1;rounded=0;startSize=1;endSize=1;strokeColor=#000000;strokeWidth=7;jumpStyle=none;jumpSize=6;exitX=0;exitY=1;exitDx=0;exitDy=0;entryX=1;entryY=0;entryDx=0;entryDy=0;" parent="1" source="289" target="289" edge="1">
                    <mxGeometry width="50" height="50" relative="1" as="geometry">
                        <mxPoint x="1670.8312626584743" y="1845.2512626584744" as="sourcePoint"/>
                        <mxPoint x="1720.3287373415255" y="1894.7487373415252" as="targetPoint"/>
                    </mxGeometry>
                </mxCell>
                <mxCell id="293" value="W" style="whiteSpace=wrap;html=1;aspect=fixed;fillColor=#e1d5e7;strokeColor=#000000;strokeWidth=3;fontSize=33;fontStyle=1" parent="1" vertex="1">
                    <mxGeometry x="160.98" y="1275" width="40" height="40" as="geometry"/>
                </mxCell>
                <mxCell id="294" value="" style="line;strokeWidth=4;direction=south;html=1;perimeter=backbonePerimeter;points=[];outlineConnect=0;" parent="1" vertex="1">
                    <mxGeometry x="40.97999999999999" y="1095.58" width="10" height="849.42" as="geometry"/>
                </mxCell>
                <mxCell id="295" value="" style="line;strokeWidth=4;direction=south;html=1;perimeter=backbonePerimeter;points=[];outlineConnect=0;" parent="1" vertex="1">
                    <mxGeometry x="229.75999999999996" y="1095.58" width="10" height="849.42" as="geometry"/>
                </mxCell>
                <mxCell id="296" value="" style="line;strokeWidth=4;direction=south;html=1;perimeter=backbonePerimeter;points=[];outlineConnect=0;" parent="1" vertex="1">
                    <mxGeometry x="415.61" y="1095.58" width="10" height="849.42" as="geometry"/>
                </mxCell>
                <mxCell id="297" value="" style="line;strokeWidth=4;direction=south;html=1;perimeter=backbonePerimeter;points=[];outlineConnect=0;" parent="1" vertex="1">
                    <mxGeometry x="604.39" y="1095.58" width="10" height="849.42" as="geometry"/>
                </mxCell>
                <mxCell id="298" value="" style="line;strokeWidth=4;direction=south;html=1;perimeter=backbonePerimeter;points=[];outlineConnect=0;" parent="1" vertex="1">
                    <mxGeometry x="797.5" y="1095.58" width="10" height="849.42" as="geometry"/>
                </mxCell>
                <mxCell id="299" value="" style="line;strokeWidth=4;direction=south;html=1;perimeter=backbonePerimeter;points=[];outlineConnect=0;" parent="1" vertex="1">
                    <mxGeometry x="986.28" y="1095.58" width="10" height="849.42" as="geometry"/>
                </mxCell>
                <mxCell id="300" value="" style="line;strokeWidth=4;direction=south;html=1;perimeter=backbonePerimeter;points=[];outlineConnect=0;" parent="1" vertex="1">
                    <mxGeometry x="1180.98" y="1095.58" width="10" height="849.42" as="geometry"/>
                </mxCell>
                <mxCell id="301" value="" style="line;strokeWidth=4;direction=south;html=1;perimeter=backbonePerimeter;points=[];outlineConnect=0;" parent="1" vertex="1">
                    <mxGeometry x="1370.91" y="1095.58" width="10" height="849.42" as="geometry"/>
                </mxCell>
                <mxCell id="302" value="" style="line;strokeWidth=4;direction=south;html=1;perimeter=backbonePerimeter;points=[];outlineConnect=0;" parent="1" vertex="1">
                    <mxGeometry x="1590.98" y="1095.58" width="10" height="849.42" as="geometry"/>
                </mxCell>
                <mxCell id="305" value="W" style="whiteSpace=wrap;html=1;aspect=fixed;fillColor=#e1d5e7;strokeColor=#000000;strokeWidth=3;fontSize=33;fontStyle=1" parent="1" vertex="1">
                    <mxGeometry x="160.98" y="1405" width="40" height="40" as="geometry"/>
                </mxCell>
                <mxCell id="306" value="W" style="whiteSpace=wrap;html=1;aspect=fixed;fillColor=#e1d5e7;strokeColor=#000000;strokeWidth=3;fontSize=33;fontStyle=1" parent="1" vertex="1">
                    <mxGeometry x="160.98" y="1525" width="40" height="40" as="geometry"/>
                </mxCell>
                <mxCell id="308" value="W" style="whiteSpace=wrap;html=1;aspect=fixed;fillColor=#e1d5e7;strokeColor=#000000;strokeWidth=3;fontSize=33;fontStyle=1" parent="1" vertex="1">
                    <mxGeometry x="160.98" y="1645" width="40" height="40" as="geometry"/>
                </mxCell>
                <mxCell id="309" value="W" style="whiteSpace=wrap;html=1;aspect=fixed;fillColor=#e1d5e7;strokeColor=#000000;strokeWidth=3;fontSize=33;fontStyle=1" parent="1" vertex="1">
                    <mxGeometry x="160.98" y="1775" width="40" height="40" as="geometry"/>
                </mxCell>
                <mxCell id="311" value="W" style="whiteSpace=wrap;html=1;aspect=fixed;fillColor=#e1d5e7;strokeColor=#000000;strokeWidth=3;fontSize=33;fontStyle=1" parent="1" vertex="1">
                    <mxGeometry x="360.98" y="1275" width="40" height="40" as="geometry"/>
                </mxCell>
                <mxCell id="312" value="W" style="whiteSpace=wrap;html=1;aspect=fixed;fillColor=#e1d5e7;strokeColor=#000000;strokeWidth=3;fontSize=33;fontStyle=1" parent="1" vertex="1">
                    <mxGeometry x="360.98" y="1405" width="40" height="40" as="geometry"/>
                </mxCell>
                <mxCell id="313" value="W" style="whiteSpace=wrap;html=1;aspect=fixed;fillColor=#e1d5e7;strokeColor=#000000;strokeWidth=3;fontSize=33;fontStyle=1" parent="1" vertex="1">
                    <mxGeometry x="360.98" y="1525" width="40" height="40" as="geometry"/>
                </mxCell>
                <mxCell id="314" value="W" style="whiteSpace=wrap;html=1;aspect=fixed;fillColor=#e1d5e7;strokeColor=#000000;strokeWidth=3;fontSize=33;fontStyle=1" parent="1" vertex="1">
                    <mxGeometry x="360.98" y="1645" width="40" height="40" as="geometry"/>
                </mxCell>
                <mxCell id="315" value="W" style="whiteSpace=wrap;html=1;aspect=fixed;fillColor=#e1d5e7;strokeColor=#000000;strokeWidth=3;fontSize=33;fontStyle=1" parent="1" vertex="1">
                    <mxGeometry x="360.98" y="1775" width="40" height="40" as="geometry"/>
                </mxCell>
                <mxCell id="316" value="W" style="whiteSpace=wrap;html=1;aspect=fixed;fillColor=#e1d5e7;strokeColor=#000000;strokeWidth=3;fontSize=33;fontStyle=1" parent="1" vertex="1">
                    <mxGeometry x="540.98" y="1275" width="40" height="40" as="geometry"/>
                </mxCell>
                <mxCell id="317" value="W" style="whiteSpace=wrap;html=1;aspect=fixed;fillColor=#e1d5e7;strokeColor=#000000;strokeWidth=3;fontSize=33;fontStyle=1" parent="1" vertex="1">
                    <mxGeometry x="540.98" y="1405" width="40" height="40" as="geometry"/>
                </mxCell>
                <mxCell id="318" value="W" style="whiteSpace=wrap;html=1;aspect=fixed;fillColor=#e1d5e7;strokeColor=#000000;strokeWidth=3;fontSize=33;fontStyle=1" parent="1" vertex="1">
                    <mxGeometry x="540.98" y="1525" width="40" height="40" as="geometry"/>
                </mxCell>
                <mxCell id="319" value="W" style="whiteSpace=wrap;html=1;aspect=fixed;fillColor=#e1d5e7;strokeColor=#000000;strokeWidth=3;fontSize=33;fontStyle=1" parent="1" vertex="1">
                    <mxGeometry x="540.98" y="1645" width="40" height="40" as="geometry"/>
                </mxCell>
                <mxCell id="320" value="W" style="whiteSpace=wrap;html=1;aspect=fixed;fillColor=#e1d5e7;strokeColor=#000000;strokeWidth=3;fontSize=33;fontStyle=1" parent="1" vertex="1">
                    <mxGeometry x="540.98" y="1775" width="40" height="40" as="geometry"/>
                </mxCell>
                <mxCell id="321" value="W" style="whiteSpace=wrap;html=1;aspect=fixed;fillColor=#e1d5e7;strokeColor=#000000;strokeWidth=3;fontSize=33;fontStyle=1" parent="1" vertex="1">
                    <mxGeometry x="740.98" y="1275" width="40" height="40" as="geometry"/>
                </mxCell>
                <mxCell id="322" value="W" style="whiteSpace=wrap;html=1;aspect=fixed;fillColor=#e1d5e7;strokeColor=#000000;strokeWidth=3;fontSize=33;fontStyle=1" parent="1" vertex="1">
                    <mxGeometry x="740.98" y="1405" width="40" height="40" as="geometry"/>
                </mxCell>
                <mxCell id="323" value="W" style="whiteSpace=wrap;html=1;aspect=fixed;fillColor=#e1d5e7;strokeColor=#000000;strokeWidth=3;fontSize=33;fontStyle=1" parent="1" vertex="1">
                    <mxGeometry x="740.98" y="1525" width="40" height="40" as="geometry"/>
                </mxCell>
                <mxCell id="324" value="W" style="whiteSpace=wrap;html=1;aspect=fixed;fillColor=#e1d5e7;strokeColor=#000000;strokeWidth=3;fontSize=33;fontStyle=1" parent="1" vertex="1">
                    <mxGeometry x="740.98" y="1645" width="40" height="40" as="geometry"/>
                </mxCell>
                <mxCell id="325" value="W" style="whiteSpace=wrap;html=1;aspect=fixed;fillColor=#e1d5e7;strokeColor=#000000;strokeWidth=3;fontSize=33;fontStyle=1" parent="1" vertex="1">
                    <mxGeometry x="740.98" y="1775" width="40" height="40" as="geometry"/>
                </mxCell>
                <mxCell id="326" value="W" style="whiteSpace=wrap;html=1;aspect=fixed;fillColor=#e1d5e7;strokeColor=#000000;strokeWidth=3;fontSize=33;fontStyle=1" parent="1" vertex="1">
                    <mxGeometry x="927.5" y="1275" width="40" height="40" as="geometry"/>
                </mxCell>
                <mxCell id="327" value="W" style="whiteSpace=wrap;html=1;aspect=fixed;fillColor=#e1d5e7;strokeColor=#000000;strokeWidth=3;fontSize=33;fontStyle=1" parent="1" vertex="1">
                    <mxGeometry x="927.5" y="1405" width="40" height="40" as="geometry"/>
                </mxCell>
                <mxCell id="328" value="W" style="whiteSpace=wrap;html=1;aspect=fixed;fillColor=#e1d5e7;strokeColor=#000000;strokeWidth=3;fontSize=33;fontStyle=1" parent="1" vertex="1">
                    <mxGeometry x="927.5" y="1525" width="40" height="40" as="geometry"/>
                </mxCell>
                <mxCell id="329" value="W" style="whiteSpace=wrap;html=1;aspect=fixed;fillColor=#e1d5e7;strokeColor=#000000;strokeWidth=3;fontSize=33;fontStyle=1" parent="1" vertex="1">
                    <mxGeometry x="927.5" y="1645" width="40" height="40" as="geometry"/>
                </mxCell>
                <mxCell id="330" value="W" style="whiteSpace=wrap;html=1;aspect=fixed;fillColor=#e1d5e7;strokeColor=#000000;strokeWidth=3;fontSize=33;fontStyle=1" parent="1" vertex="1">
                    <mxGeometry x="927.5" y="1775" width="40" height="40" as="geometry"/>
                </mxCell>
                <mxCell id="331" value="W" style="whiteSpace=wrap;html=1;aspect=fixed;fillColor=#e1d5e7;strokeColor=#000000;strokeWidth=3;fontSize=33;fontStyle=1" parent="1" vertex="1">
                    <mxGeometry x="1127.5" y="1275" width="40" height="40" as="geometry"/>
                </mxCell>
                <mxCell id="332" value="W" style="whiteSpace=wrap;html=1;aspect=fixed;fillColor=#e1d5e7;strokeColor=#000000;strokeWidth=3;fontSize=33;fontStyle=1" parent="1" vertex="1">
                    <mxGeometry x="1127.5" y="1405" width="40" height="40" as="geometry"/>
                </mxCell>
                <mxCell id="333" value="W" style="whiteSpace=wrap;html=1;aspect=fixed;fillColor=#e1d5e7;strokeColor=#000000;strokeWidth=3;fontSize=33;fontStyle=1" parent="1" vertex="1">
                    <mxGeometry x="1127.5" y="1525" width="40" height="40" as="geometry"/>
                </mxCell>
                <mxCell id="334" value="W" style="whiteSpace=wrap;html=1;aspect=fixed;fillColor=#e1d5e7;strokeColor=#000000;strokeWidth=3;fontSize=33;fontStyle=1" parent="1" vertex="1">
                    <mxGeometry x="1127.5" y="1645" width="40" height="40" as="geometry"/>
                </mxCell>
                <mxCell id="335" value="W" style="whiteSpace=wrap;html=1;aspect=fixed;fillColor=#e1d5e7;strokeColor=#000000;strokeWidth=3;fontSize=33;fontStyle=1" parent="1" vertex="1">
                    <mxGeometry x="1127.5" y="1775" width="40" height="40" as="geometry"/>
                </mxCell>
                <mxCell id="336" value="W" style="whiteSpace=wrap;html=1;aspect=fixed;fillColor=#e1d5e7;strokeColor=#000000;strokeWidth=3;fontSize=33;fontStyle=1" parent="1" vertex="1">
                    <mxGeometry x="1320.98" y="1275" width="40" height="40" as="geometry"/>
                </mxCell>
                <mxCell id="337" value="W" style="whiteSpace=wrap;html=1;aspect=fixed;fillColor=#e1d5e7;strokeColor=#000000;strokeWidth=3;fontSize=33;fontStyle=1" parent="1" vertex="1">
                    <mxGeometry x="1320.98" y="1405" width="40" height="40" as="geometry"/>
                </mxCell>
                <mxCell id="338" value="W" style="whiteSpace=wrap;html=1;aspect=fixed;fillColor=#e1d5e7;strokeColor=#000000;strokeWidth=3;fontSize=33;fontStyle=1" parent="1" vertex="1">
                    <mxGeometry x="1320.98" y="1525" width="40" height="40" as="geometry"/>
                </mxCell>
                <mxCell id="339" value="W" style="whiteSpace=wrap;html=1;aspect=fixed;fillColor=#e1d5e7;strokeColor=#000000;strokeWidth=3;fontSize=33;fontStyle=1" parent="1" vertex="1">
                    <mxGeometry x="1320.98" y="1645" width="40" height="40" as="geometry"/>
                </mxCell>
                <mxCell id="340" value="W" style="whiteSpace=wrap;html=1;aspect=fixed;fillColor=#e1d5e7;strokeColor=#000000;strokeWidth=3;fontSize=33;fontStyle=1" parent="1" vertex="1">
                    <mxGeometry x="1320.98" y="1775" width="40" height="40" as="geometry"/>
                </mxCell>
                <mxCell id="341" value="W" style="whiteSpace=wrap;html=1;aspect=fixed;fillColor=#e1d5e7;strokeColor=#000000;strokeWidth=3;fontSize=33;fontStyle=1" parent="1" vertex="1">
                    <mxGeometry x="1520.98" y="1275" width="40" height="40" as="geometry"/>
                </mxCell>
                <mxCell id="342" value="W" style="whiteSpace=wrap;html=1;aspect=fixed;fillColor=#e1d5e7;strokeColor=#000000;strokeWidth=3;fontSize=33;fontStyle=1" parent="1" vertex="1">
                    <mxGeometry x="1520.98" y="1405" width="40" height="40" as="geometry"/>
                </mxCell>
                <mxCell id="343" value="W" style="whiteSpace=wrap;html=1;aspect=fixed;fillColor=#e1d5e7;strokeColor=#000000;strokeWidth=3;fontSize=33;fontStyle=1" parent="1" vertex="1">
                    <mxGeometry x="1520.98" y="1525" width="40" height="40" as="geometry"/>
                </mxCell>
                <mxCell id="344" value="W" style="whiteSpace=wrap;html=1;aspect=fixed;fillColor=#e1d5e7;strokeColor=#000000;strokeWidth=3;fontSize=33;fontStyle=1" parent="1" vertex="1">
                    <mxGeometry x="1520.98" y="1645" width="40" height="40" as="geometry"/>
                </mxCell>
                <mxCell id="345" value="W" style="whiteSpace=wrap;html=1;aspect=fixed;fillColor=#e1d5e7;strokeColor=#000000;strokeWidth=3;fontSize=33;fontStyle=1" parent="1" vertex="1">
                    <mxGeometry x="1520.98" y="1775" width="40" height="40" as="geometry"/>
                </mxCell>
                <mxCell id="346" value="W" style="whiteSpace=wrap;html=1;aspect=fixed;fillColor=#e1d5e7;strokeColor=#000000;strokeWidth=3;fontSize=33;fontStyle=1" parent="1" vertex="1">
                    <mxGeometry x="1710.98" y="1275" width="40" height="40" as="geometry"/>
                </mxCell>
                <mxCell id="347" value="W" style="whiteSpace=wrap;html=1;aspect=fixed;fillColor=#e1d5e7;strokeColor=#000000;strokeWidth=3;fontSize=33;fontStyle=1" parent="1" vertex="1">
                    <mxGeometry x="1710.98" y="1405" width="40" height="40" as="geometry"/>
                </mxCell>
                <mxCell id="348" value="W" style="whiteSpace=wrap;html=1;aspect=fixed;fillColor=#e1d5e7;strokeColor=#000000;strokeWidth=3;fontSize=33;fontStyle=1" parent="1" vertex="1">
                    <mxGeometry x="1710.98" y="1525" width="40" height="40" as="geometry"/>
                </mxCell>
                <mxCell id="349" value="W" style="whiteSpace=wrap;html=1;aspect=fixed;fillColor=#e1d5e7;strokeColor=#000000;strokeWidth=3;fontSize=33;fontStyle=1" parent="1" vertex="1">
                    <mxGeometry x="1710.98" y="1645" width="40" height="40" as="geometry"/>
                </mxCell>
                <mxCell id="350" value="W" style="whiteSpace=wrap;html=1;aspect=fixed;fillColor=#e1d5e7;strokeColor=#000000;strokeWidth=3;fontSize=33;fontStyle=1" parent="1" vertex="1">
                    <mxGeometry x="1710.98" y="1775" width="40" height="40" as="geometry"/>
                </mxCell>
                <mxCell id="356" value="" style="line;strokeWidth=13;html=1;" parent="1" vertex="1">
                    <mxGeometry x="40.97999999999999" y="1085.58" width="1560" height="10" as="geometry"/>
                </mxCell>
                <mxCell id="359" value="" style="line;strokeWidth=13;direction=south;html=1;perimeter=backbonePerimeter;points=[];outlineConnect=0;" parent="1" vertex="1">
                    <mxGeometry x="807.4999999999999" y="500" width="10" height="128" as="geometry"/>
                </mxCell>
                <mxCell id="360" style="edgeStyle=orthogonalEdgeStyle;rounded=0;jumpStyle=none;jumpSize=6;orthogonalLoop=1;jettySize=auto;html=1;fontSize=50;fontColor=#000000;startArrow=classic;startFill=1;endArrow=classic;endFill=1;startSize=1;endSize=1;strokeColor=#000000;strokeWidth=7;" parent="1" edge="1">
                    <mxGeometry relative="1" as="geometry">
                        <mxPoint x="1730.98" y="1375.52" as="targetPoint"/>
                        <mxPoint x="1980.98" y="1375.12" as="sourcePoint"/>
                        <Array as="points">
                            <mxPoint x="1820.98" y="1375.12"/>
                            <mxPoint x="1820.98" y="1375.12"/>
                        </Array>
                    </mxGeometry>
                </mxCell>
                <mxCell id="361" style="edgeStyle=orthogonalEdgeStyle;rounded=0;jumpStyle=none;jumpSize=6;orthogonalLoop=1;jettySize=auto;html=1;fontSize=50;fontColor=#000000;startArrow=classic;startFill=1;endArrow=classic;endFill=1;startSize=1;endSize=1;strokeColor=#000000;strokeWidth=7;" parent="1" edge="1">
                    <mxGeometry relative="1" as="geometry">
                        <mxPoint x="1730.98" y="1494.75" as="targetPoint"/>
                        <mxPoint x="1980.98" y="1494.35" as="sourcePoint"/>
                        <Array as="points">
                            <mxPoint x="1820.98" y="1494.35"/>
                            <mxPoint x="1820.98" y="1494.35"/>
                        </Array>
                    </mxGeometry>
                </mxCell>
                <mxCell id="362" style="edgeStyle=orthogonalEdgeStyle;rounded=0;jumpStyle=none;jumpSize=6;orthogonalLoop=1;jettySize=auto;html=1;fontSize=50;fontColor=#000000;startArrow=classic;startFill=1;endArrow=classic;endFill=1;startSize=1;endSize=1;strokeColor=#000000;strokeWidth=7;" parent="1" edge="1">
                    <mxGeometry relative="1" as="geometry">
                        <mxPoint x="1730.98" y="1620.29" as="targetPoint"/>
                        <mxPoint x="1980.98" y="1619.8899999999999" as="sourcePoint"/>
                        <Array as="points">
                            <mxPoint x="1820.98" y="1619.8899999999999"/>
                            <mxPoint x="1820.98" y="1619.8899999999999"/>
                        </Array>
                    </mxGeometry>
                </mxCell>
                <mxCell id="363" style="edgeStyle=orthogonalEdgeStyle;rounded=0;jumpStyle=none;jumpSize=6;orthogonalLoop=1;jettySize=auto;html=1;fontSize=50;fontColor=#000000;startArrow=classic;startFill=1;endArrow=classic;endFill=1;startSize=1;endSize=1;strokeColor=#000000;strokeWidth=7;" parent="1" edge="1">
                    <mxGeometry relative="1" as="geometry">
                        <mxPoint x="1730.98" y="1745.98" as="targetPoint"/>
                        <mxPoint x="1980.98" y="1745.58" as="sourcePoint"/>
                        <Array as="points">
                            <mxPoint x="1820.98" y="1745.58"/>
                            <mxPoint x="1820.98" y="1745.58"/>
                        </Array>
                    </mxGeometry>
                </mxCell>
                <mxCell id="364" style="edgeStyle=orthogonalEdgeStyle;rounded=0;jumpStyle=none;jumpSize=6;orthogonalLoop=1;jettySize=auto;html=1;fontSize=50;fontColor=#000000;startArrow=classic;startFill=1;endArrow=classic;endFill=1;startSize=1;endSize=1;strokeColor=#000000;strokeWidth=7;" parent="1" edge="1">
                    <mxGeometry relative="1" as="geometry">
                        <mxPoint x="1730.98" y="1860.02" as="targetPoint"/>
                        <mxPoint x="1980.98" y="1859.62" as="sourcePoint"/>
                        <Array as="points">
                            <mxPoint x="1820.98" y="1859.62"/>
                            <mxPoint x="1820.98" y="1859.62"/>
                        </Array>
                    </mxGeometry>
                </mxCell>
                <mxCell id="365" value="" style="rounded=0;whiteSpace=wrap;html=1;fillColor=#000000;" parent="1" vertex="1">
                    <mxGeometry x="-140.58" y="978.84" width="43" height="20" as="geometry"/>
                </mxCell>
                <mxCell id="366" value="" style="rounded=0;whiteSpace=wrap;html=1;fillColor=#000000;" parent="1" vertex="1">
                    <mxGeometry x="-41.74000000000001" y="978.84" width="43" height="20" as="geometry"/>
                </mxCell>
                <mxCell id="367" value="" style="rounded=0;whiteSpace=wrap;html=1;fillColor=#000000;" parent="1" vertex="1">
                    <mxGeometry x="57.099999999999994" y="978.84" width="43" height="20" as="geometry"/>
                </mxCell>
                <mxCell id="368" value="" style="rounded=0;whiteSpace=wrap;html=1;fillColor=#000000;" parent="1" vertex="1">
                    <mxGeometry x="679.42" y="978.84" width="43" height="20" as="geometry"/>
                </mxCell>
                <mxCell id="369" value="" style="rounded=0;whiteSpace=wrap;html=1;fillColor=#000000;" parent="1" vertex="1">
                    <mxGeometry x="788.26" y="978.84" width="43" height="20" as="geometry"/>
                </mxCell>
                <mxCell id="370" value="" style="rounded=0;whiteSpace=wrap;html=1;fillColor=#000000;" parent="1" vertex="1">
                    <mxGeometry x="884.5" y="978.84" width="43" height="20" as="geometry"/>
                </mxCell>
                <mxCell id="371" value="" style="rounded=0;whiteSpace=wrap;html=1;fillColor=#000000;" parent="1" vertex="1">
                    <mxGeometry x="1499.42" y="978.84" width="43" height="20" as="geometry"/>
                </mxCell>
                <mxCell id="372" value="" style="rounded=0;whiteSpace=wrap;html=1;fillColor=#000000;" parent="1" vertex="1">
                    <mxGeometry x="1598.26" y="978.84" width="43" height="20" as="geometry"/>
                </mxCell>
                <mxCell id="373" value="" style="rounded=0;whiteSpace=wrap;html=1;fillColor=#000000;" parent="1" vertex="1">
                    <mxGeometry x="1697.1" y="978.84" width="43" height="20" as="geometry"/>
                </mxCell>
                <mxCell id="389" value="" style="whiteSpace=wrap;html=1;aspect=fixed;fillColor=#f8cecc;strokeColor=#000000;strokeWidth=6;" parent="1" vertex="1">
                    <mxGeometry x="-168.5" y="880" width="98.84" height="98.84" as="geometry"/>
                </mxCell>
                <mxCell id="390" value="" style="whiteSpace=wrap;html=1;aspect=fixed;fillColor=#f8cecc;strokeColor=#000000;strokeWidth=6;" parent="1" vertex="1">
                    <mxGeometry x="-69.65999999999997" y="880" width="98.84" height="98.84" as="geometry"/>
                </mxCell>
                <mxCell id="391" value="" style="whiteSpace=wrap;html=1;aspect=fixed;fillColor=#f8cecc;strokeColor=#000000;strokeWidth=6;" parent="1" vertex="1">
                    <mxGeometry x="29.180000000000064" y="880" width="98.84" height="98.84" as="geometry"/>
                </mxCell>
                <mxCell id="397" value="" style="whiteSpace=wrap;html=1;aspect=fixed;fillColor=#f8cecc;strokeColor=#000000;strokeWidth=6;" parent="1" vertex="1">
                    <mxGeometry x="661.5" y="880" width="98.84" height="98.84" as="geometry"/>
                </mxCell>
                <mxCell id="398" value="" style="whiteSpace=wrap;html=1;aspect=fixed;fillColor=#f8cecc;strokeColor=#000000;strokeWidth=6;" parent="1" vertex="1">
                    <mxGeometry x="760.3400000000001" y="880" width="98.84" height="98.84" as="geometry"/>
                </mxCell>
                <mxCell id="399" value="" style="whiteSpace=wrap;html=1;aspect=fixed;fillColor=#f8cecc;strokeColor=#000000;strokeWidth=6;" parent="1" vertex="1">
                    <mxGeometry x="859.1800000000001" y="880" width="98.84" height="98.84" as="geometry"/>
                </mxCell>
            </root>
        </mxGraphModel>
    </diagram>
</mxfile>